<svg xmlns="http://www.w3.org/2000/svg" xmlns:xlink="http://www.w3.org/1999/xlink" width="985" zoomAndPan="magnify" viewBox="0 0 738.75 194.249992" height="259" preserveAspectRatio="xMidYMid meet" version="1.0"><defs><g/><clipPath id="1eda459724"><path d="M 312.503906 14 L 715 14 L 715 161.945312 L 312.503906 161.945312 Z M 312.503906 14 " clip-rule="nonzero"/></clipPath><clipPath id="465a81e208"><path d="M 312.503906 20 L 708 20 L 708 156 L 312.503906 156 Z M 312.503906 20 " clip-rule="nonzero"/></clipPath><clipPath id="e37831ce15"><path d="M 312.503906 20 L 708 20 L 708 104 L 312.503906 104 Z M 312.503906 20 " clip-rule="nonzero"/></clipPath></defs><path fill="#000000" d="M 444.617188 159.792969 C 388.105469 159.789062 308.324219 156.40625 253.28125 156.40625 C 211.65625 156.40625 113.449219 160.671875 73.816406 151.136719 C 70.519531 150.339844 66.597656 128.109375 65.289062 104.8125 C 41.1875 102.113281 8.226562 104.144531 2.0625 108.460938 C 6.550781 94.046875 38.441406 73.625 63.800781 59.210938 C 65.425781 36.234375 71.613281 13.742188 82.226562 13.164062 C 118.851562 11.175781 467.738281 16.636719 496.738281 17.042969 C 510.871094 17.238281 530.941406 21.144531 536.269531 47.40625 C 538.824219 60.011719 539.265625 142.566406 526.394531 150.683594 C 515.257812 157.707031 483.289062 159.792969 444.617188 159.792969 " fill-opacity="1" fill-rule="nonzero"/><path fill="#b8f1f9" d="M 439.417969 153.695312 C 383.042969 153.691406 307.785156 149.25 252.882812 149.25 C 211.363281 149.25 117.726562 152.902344 78.195312 143.386719 C 74.90625 142.597656 71.4375 123.167969 70.132812 99.929688 C 46.003906 98.449219 17.492188 97.765625 11.34375 102.070312 C 15.734375 94.210938 44.925781 76.421875 70.222656 62.042969 C 71.84375 39.125 76.808594 20.164062 87.394531 19.589844 C 123.921875 17.605469 461.664062 23.09375 490.589844 23.496094 C 504.683594 23.691406 523.378906 27.585938 528.695312 53.78125 C 531.242188 66.351562 532.492188 136.511719 519.65625 144.609375 C 508.542969 151.613281 477.988281 153.695312 439.417969 153.695312 " fill-opacity="1" fill-rule="nonzero"/><path fill="#228d9a" d="M 11.34375 102.070312 C 15.734375 94.210938 44.925781 76.421875 70.222656 62.042969 C 71.84375 39.125 76.808594 20.164062 87.394531 19.589844 C 123.921875 17.605469 461.664062 23.09375 490.589844 23.496094 C 504.683594 23.691406 523.378906 27.585938 528.6875 53.78125 C 529.976562 60.125 530.929688 81.128906 529.914062 101.421875 C 528.632812 75.5625 514.890625 46.488281 501.835938 40.316406 C 488.371094 33.949219 393.546875 35.664062 393.546875 35.664062 C 393.546875 35.664062 99.695312 28.140625 91.035156 33.679688 C 82.378906 39.222656 79.957031 67.480469 79.957031 67.480469 C 79.957031 67.480469 67.140625 74.753906 55.023438 78.5625 C 47.273438 80.996094 27.324219 93.027344 12.574219 101.398438 C 12.101562 101.609375 11.6875 101.832031 11.34375 102.070312 " fill-opacity="1" fill-rule="nonzero"/><g clip-path="url(#1eda459724)"><path fill="#000000" d="M 621.550781 161.132812 C 565.035156 161.128906 485.257812 157.746094 430.214844 157.746094 C 388.589844 157.746094 290.378906 162.011719 250.75 152.476562 C 247.449219 151.679688 243.53125 129.449219 242.222656 106.152344 C 218.121094 103.453125 185.160156 105.484375 178.996094 109.800781 C 183.484375 95.386719 215.371094 74.964844 240.734375 60.550781 C 242.359375 37.574219 248.546875 15.082031 259.160156 14.503906 C 295.78125 12.515625 644.671875 17.976562 673.671875 18.382812 C 687.800781 18.578125 707.875 22.484375 713.203125 48.746094 C 715.757812 61.351562 716.199219 143.90625 703.328125 152.023438 C 692.191406 159.046875 660.222656 161.132812 621.550781 161.132812 " fill-opacity="1" fill-rule="nonzero"/></g><g clip-path="url(#465a81e208)"><path fill="#b8f1f9" d="M 616.347656 155.035156 C 559.976562 155.03125 484.714844 150.589844 429.8125 150.589844 C 388.296875 150.589844 294.660156 154.242188 255.128906 144.726562 C 251.839844 143.9375 248.371094 124.507812 247.066406 101.269531 C 222.9375 99.789062 194.425781 99.105469 188.277344 103.410156 C 192.667969 95.550781 221.859375 77.761719 247.15625 63.382812 C 248.777344 40.464844 253.742188 21.503906 264.328125 20.929688 C 300.855469 18.941406 638.597656 24.433594 667.523438 24.835938 C 681.617188 25.03125 700.3125 28.925781 705.625 55.121094 C 708.175781 67.691406 709.425781 137.851562 696.589844 145.949219 C 685.476562 152.953125 654.921875 155.035156 616.347656 155.035156 " fill-opacity="1" fill-rule="nonzero"/></g><g clip-path="url(#e37831ce15)"><path fill="#0095a9" d="M 188.277344 103.410156 C 192.667969 95.550781 221.859375 77.761719 247.15625 63.382812 C 248.777344 40.464844 253.742188 21.503906 264.324219 20.929688 C 300.855469 18.941406 638.597656 24.433594 667.519531 24.835938 C 681.617188 25.03125 700.3125 28.925781 705.621094 55.121094 C 706.910156 61.464844 707.863281 82.46875 706.84375 102.761719 C 705.566406 76.902344 691.824219 47.828125 678.769531 41.65625 C 665.300781 35.289062 570.480469 37.003906 570.480469 37.003906 C 570.480469 37.003906 276.628906 29.480469 267.96875 35.019531 C 259.3125 40.5625 256.890625 68.820312 256.890625 68.820312 C 256.890625 68.820312 244.074219 76.09375 231.953125 79.902344 C 224.203125 82.335938 204.257812 94.367188 189.507812 102.738281 C 189.03125 102.949219 188.621094 103.171875 188.277344 103.410156 " fill-opacity="1" fill-rule="nonzero"/></g><path stroke-linecap="butt" transform="matrix(0.631303, 0, 0, 0.631303, 70.996754, 21.266716)" fill="none" stroke-linejoin="miter" d="M 149.602638 108.206942 C 153.358509 111.269801 156.322367 115.025672 158.494213 119.480741 C 160.529932 123.929622 161.779826 128.551756 162.250083 133.340955 C 162.69559 138.123966 162.293396 142.857476 161.043502 147.535299 C 159.78742 152.31831 157.689825 156.593938 154.738342 160.349809 C 151.762109 164.105679 147.931987 167.125226 143.260353 169.408449 C 138.582531 171.803048 133.112696 172.997254 126.850849 172.997254 L 88.902326 172.997254 C 87.510117 172.997254 86.3716 172.483684 85.480586 171.456543 C 84.447258 170.534591 83.933687 169.396074 83.933687 168.034803 L 83.933687 52.599021 C 83.933687 51.23775 84.447258 50.037356 85.480586 49.010216 C 86.3716 48.119202 87.510117 47.673695 88.902326 47.673695 L 117.080636 47.673695 C 125.068822 47.673695 131.751425 49.492848 137.122258 53.143529 C 142.350776 56.788023 146.279899 61.335906 148.891065 66.793365 C 151.508418 72.275575 152.820188 78.203291 152.820188 84.576514 C 152.708811 90.980676 151.229976 96.852704 148.389869 102.192599 C 147.832986 103.225927 147.665921 104.308757 147.888674 105.453462 C 148.111428 106.591979 148.686874 107.513931 149.602638 108.206942 Z M 108.189061 66.96043 C 106.82779 66.96043 105.69546 67.418312 104.804447 68.340264 C 103.777306 69.367405 103.263735 70.561611 103.263735 71.929069 L 103.263735 95.726562 C 103.263735 97.087833 103.777306 98.22635 104.804447 99.148302 C 105.69546 100.150692 106.82779 100.651888 108.189061 100.651888 L 117.45808 100.651888 C 120.991197 100.651888 123.955055 99.804187 126.349654 98.102598 C 128.744254 96.518574 130.563407 94.458104 131.819489 91.927378 C 133.069383 89.421402 133.69433 86.692672 133.69433 83.741189 C 133.69433 80.876332 133.125071 78.190916 131.986554 75.68494 C 130.730472 73.178964 128.911319 71.081369 126.516719 69.37978 C 124.12212 67.764818 121.102573 66.96043 117.45808 66.96043 Z M 127.18498 153.673393 C 130.718097 153.673393 133.681955 152.819505 136.076554 151.124104 C 138.471154 149.509142 140.290307 147.448672 141.546389 144.942696 C 142.684906 142.442908 143.316041 139.714178 143.42123 136.762695 C 143.42123 133.897838 142.851971 131.212422 141.713454 128.706446 C 140.457372 126.200469 138.638219 124.096687 136.243619 122.401286 C 133.84902 120.786323 130.829473 119.981936 127.18498 119.981936 L 108.189061 119.981936 C 106.82779 119.981936 105.69546 120.439818 104.804447 121.355582 C 103.777306 122.388911 103.263735 123.583116 103.263735 124.950575 L 103.263735 148.704754 C 103.263735 150.096963 103.777306 151.235481 104.804447 152.126494 C 105.69546 153.153635 106.82779 153.673393 108.189061 153.673393 Z M 196.448924 47.673695 C 197.810195 47.673695 199.010588 48.119202 200.037729 49.010216 C 200.959681 50.037356 201.417563 51.23775 201.417563 52.599021 L 201.417563 168.034803 C 201.417563 169.396074 200.959681 170.534591 200.037729 171.456543 C 199.010588 172.483684 197.810195 172.997254 196.448924 172.997254 L 187.056154 172.997254 C 185.663945 172.997254 184.525427 172.483684 183.634413 171.456543 C 182.601085 170.534591 182.087514 169.396074 182.087514 168.034803 L 182.087514 52.599021 C 182.087514 51.23775 182.601085 50.037356 183.634413 49.010216 C 184.525427 48.119202 185.663945 47.673695 187.056154 47.673695 Z M 282.611191 62.035104 C 282.611191 63.396375 282.165684 64.54108 281.27467 65.456844 C 280.247529 66.459235 279.047136 66.96043 277.685865 66.96043 L 245.330928 66.96043 C 243.969657 66.96043 242.837327 67.418312 241.946313 68.340264 C 240.919172 69.367405 240.405602 70.561611 240.405602 71.929069 L 240.405602 82.200478 C 240.405602 83.561749 240.919172 84.700266 241.946313 85.622218 C 242.837327 86.649359 243.969657 87.162929 245.330928 87.162929 L 266.70907 87.162929 C 268.206469 87.162929 269.474926 87.626999 270.502066 88.542763 C 271.39308 89.545154 271.838587 90.73936 271.838587 92.131569 L 271.838587 101.357273 C 271.838587 102.724732 271.39308 103.918938 270.502066 104.952266 C 269.474926 105.979407 268.206469 106.492978 266.70907 106.492978 L 245.330928 106.492978 C 243.969657 106.492978 242.837327 106.938485 241.946313 107.829498 C 240.919172 108.862827 240.405602 110.057033 240.405602 111.424491 L 240.405602 148.704754 C 240.405602 150.096963 240.919172 151.235481 241.946313 152.126494 C 242.837327 153.153635 243.969657 153.673393 245.330928 153.673393 L 277.685865 153.673393 C 279.047136 153.673393 280.247529 154.131275 281.27467 155.04704 C 282.165684 156.080368 282.611191 157.274574 282.611191 158.635845 L 282.611191 168.034803 C 282.611191 169.396074 282.165684 170.534591 281.27467 171.456543 C 280.247529 172.483684 279.047136 172.997254 277.685865 172.997254 L 226.044193 172.997254 C 224.651984 172.997254 223.513466 172.483684 222.622453 171.456543 C 221.589124 170.534591 221.075554 169.396074 221.075554 168.034803 L 221.075554 52.599021 C 221.075554 51.23775 221.589124 50.037356 222.622453 49.010216 C 223.513466 48.119202 224.651984 47.673695 226.044193 47.673695 L 277.685865 47.673695 C 279.047136 47.673695 280.247529 48.119202 281.27467 49.010216 C 282.165684 50.037356 282.611191 51.23775 282.611191 52.599021 Z M 377.027711 47.673695 C 378.395169 47.673695 379.589375 48.119202 380.622704 49.010216 C 381.538468 50.037356 381.99635 51.23775 381.99635 52.599021 L 381.99635 168.034803 C 381.99635 169.396074 381.538468 170.534591 380.622704 171.456543 C 379.589375 172.483684 378.395169 172.997254 377.027711 172.997254 L 363.835757 172.997254 C 361.806226 172.997254 360.32739 172.025802 359.411626 170.076709 L 325.218973 96.896017 C 324.860093 96.005003 324.17327 95.670873 323.177067 95.893627 C 322.143739 96.11638 321.630168 96.741327 321.630168 97.768468 L 321.630168 168.034803 C 321.630168 169.396074 321.172286 170.534591 320.250334 171.456543 C 319.223193 172.483684 317.967112 172.997254 316.494464 172.997254 L 307.268759 172.997254 C 305.87655 172.997254 304.738032 172.483684 303.847019 171.456543 C 302.81369 170.534591 302.30012 169.396074 302.30012 168.034803 L 302.30012 52.599021 C 302.30012 51.23775 302.81369 50.037356 303.847019 49.010216 C 304.738032 48.119202 305.87655 47.673695 307.268759 47.673695 L 320.417399 47.673695 C 322.589245 47.673695 324.068081 48.632772 324.84153 50.550927 L 359.077496 123.737806 C 359.411626 124.65357 360.14795 125.006263 361.292655 124.78351 C 362.208419 124.560757 362.666301 123.929622 362.666301 122.902481 L 362.666301 52.599021 C 362.666301 51.23775 363.179872 50.037356 364.2132 49.010216 C 365.215591 48.119202 366.409797 47.673695 367.802006 47.673695 Z M 480.806062 47.673695 C 482.421025 47.673695 483.726607 48.35433 484.728998 49.715601 C 485.650949 50.971683 485.941766 52.388643 485.607636 53.978855 C 484.797061 56.955088 484.227803 59.238311 483.893672 60.822335 C 483.448165 62.40636 483.045972 63.829507 482.687091 65.079401 C 482.352961 66.335483 482.018831 67.653441 481.684701 69.04565 C 481.208256 70.524485 480.638997 72.566392 479.970737 75.183745 C 479.166349 77.912474 478.188709 81.50128 477.050192 85.956348 C 475.79411 90.411417 474.19771 96.283445 472.248618 103.572433 C 470.324275 110.867608 467.935864 119.870559 465.064819 130.581287 C 462.119524 141.298202 458.648283 154.186964 454.669659 169.241384 C 454.422155 170.386089 453.852896 171.289478 452.961882 171.957738 C 452.039931 172.650749 451.01279 172.997254 449.868085 172.997254 L 437.55477 172.997254 C 436.416252 172.997254 435.382924 172.650749 434.46716 171.957738 C 433.545208 171.289478 432.975949 170.386089 432.753196 169.241384 C 431.973559 166.042397 430.779353 161.53164 429.16439 155.7153 C 427.574178 150.041275 425.866402 143.5938 424.028686 136.385252 C 422.110531 129.343768 420.118126 121.832027 418.057656 113.843841 C 415.88581 105.967032 413.769653 98.269663 411.715371 90.757922 C 409.679652 83.351371 407.804811 76.396513 406.078471 69.880975 C 404.376883 63.507752 402.959923 58.204982 401.821406 53.978855 C 401.487276 52.277266 401.765717 50.860307 402.650544 49.715601 C 403.683872 48.35433 405.008017 47.673695 406.616792 47.673695 L 416.176627 47.673695 C 418.682603 47.673695 420.340879 48.923589 421.145266 51.429565 C 422.067218 54.739929 423.428489 59.696193 425.241455 66.29217 C 426.936856 72.919085 428.817885 79.985319 430.872167 87.49706 C 432.932636 95.126365 434.937417 102.60098 436.886509 109.920906 C 438.693287 117.209893 440.227811 123.13761 441.477705 127.704055 C 441.811835 128.842573 442.548159 129.418019 443.692864 129.418019 C 444.831382 129.418019 445.53058 128.842573 445.778084 127.704055 C 446.557721 124.616445 447.572487 120.8977 448.828569 116.554008 C 449.967086 112.241254 451.223168 107.637683 452.584439 102.737107 C 453.834333 97.811781 455.158479 92.787454 456.550688 87.664125 C 457.911959 82.65836 459.223729 77.813473 460.473623 73.13565 C 461.729705 68.464016 462.868223 64.244076 463.895364 60.488205 C 464.928692 56.732335 465.720704 53.712788 466.277588 51.429565 C 467.081975 48.923589 468.740251 47.673695 471.246227 47.673695 Z M 566.986892 62.035104 C 566.986892 63.396375 566.541385 64.54108 565.650372 65.456844 C 564.617043 66.459235 563.422837 66.96043 562.061566 66.96043 L 529.706629 66.96043 C 528.339171 66.96043 527.213028 67.418312 526.322015 68.340264 C 525.294874 69.367405 524.775116 70.561611 524.775116 71.929069 L 524.775116 82.200478 C 524.775116 83.561749 525.294874 84.700266 526.322015 85.622218 C 527.213028 86.649359 528.339171 87.162929 529.706629 87.162929 L 551.078584 87.162929 C 552.58217 87.162929 553.850627 87.626999 554.877768 88.542763 C 555.768782 89.545154 556.214289 90.73936 556.214289 92.131569 L 556.214289 101.357273 C 556.214289 102.724732 555.768782 103.918938 554.877768 104.952266 C 553.850627 105.979407 552.58217 106.492978 551.078584 106.492978 L 529.706629 106.492978 C 528.339171 106.492978 527.213028 106.938485 526.322015 107.829498 C 525.294874 108.862827 524.775116 110.057033 524.775116 111.424491 L 524.775116 148.704754 C 524.775116 150.096963 525.294874 151.235481 526.322015 152.126494 C 527.213028 153.153635 528.339171 153.673393 529.706629 153.673393 L 562.061566 153.673393 C 563.422837 153.673393 564.617043 154.131275 565.650372 155.04704 C 566.541385 156.080368 566.986892 157.274574 566.986892 158.635845 L 566.986892 168.034803 C 566.986892 169.396074 566.541385 170.534591 565.650372 171.456543 C 564.617043 172.483684 563.422837 172.997254 562.061566 172.997254 L 510.413707 172.997254 C 509.027685 172.997254 507.88298 172.483684 506.991966 171.456543 C 505.964825 170.534591 505.451255 169.396074 505.451255 168.034803 L 505.451255 52.599021 C 505.451255 51.23775 505.964825 50.037356 506.991966 49.010216 C 507.88298 48.119202 509.027685 47.673695 510.413707 47.673695 L 562.061566 47.673695 C 563.422837 47.673695 564.617043 48.119202 565.650372 49.010216 C 566.541385 50.037356 566.986892 51.23775 566.986892 52.599021 Z M 661.403412 47.673695 C 662.764683 47.673695 663.965076 48.119202 664.992217 49.010216 C 665.914169 50.037356 666.372051 51.23775 666.372051 52.599021 L 666.372051 168.034803 C 666.372051 169.396074 665.914169 170.534591 664.992217 171.456543 C 663.965076 172.483684 662.764683 172.997254 661.403412 172.997254 L 648.211458 172.997254 C 646.175739 172.997254 644.703092 172.025802 643.787328 170.076709 L 609.594675 96.896017 C 609.229607 96.005003 608.548971 95.670873 607.546581 95.893627 C 606.51944 96.11638 605.999682 96.741327 605.999682 97.768468 L 605.999682 168.034803 C 605.999682 169.396074 605.5418 170.534591 604.626036 171.456543 C 603.592707 172.483684 602.342813 172.997254 600.870165 172.997254 L 591.638273 172.997254 C 590.252251 172.997254 589.107546 172.483684 588.216532 171.456543 C 587.189392 170.534591 586.675821 169.396074 586.675821 168.034803 L 586.675821 52.599021 C 586.675821 51.23775 587.189392 50.037356 588.216532 49.010216 C 589.107546 48.119202 590.252251 47.673695 591.638273 47.673695 L 604.793101 47.673695 C 606.964947 47.673695 608.437595 48.632772 609.217232 50.550927 L 643.453197 123.737806 C 643.787328 124.65357 644.523651 125.006263 645.662169 124.78351 C 646.584121 124.560757 647.042003 123.929622 647.042003 122.902481 L 647.042003 52.599021 C 647.042003 51.23775 647.555573 50.037356 648.582714 49.010216 C 649.585105 48.119202 650.785498 47.673695 652.177707 47.673695 Z M 700.385264 47.673695 C 701.746535 47.673695 702.946928 48.119202 703.974069 49.010216 C 704.896021 50.037356 705.353903 51.23775 705.353903 52.599021 L 705.353903 168.034803 C 705.353903 169.396074 704.896021 170.534591 703.974069 171.456543 C 702.946928 172.483684 701.746535 172.997254 700.385264 172.997254 L 690.992494 172.997254 C 689.600285 172.997254 688.461767 172.483684 687.570753 171.456543 C 686.537425 170.534591 686.023854 169.396074 686.023854 168.034803 L 686.023854 52.599021 C 686.023854 51.23775 686.537425 50.037356 687.570753 49.010216 C 688.461767 48.119202 689.600285 47.673695 690.992494 47.673695 Z M 744.341942 47.673695 C 753.555272 47.673695 761.877588 49.313408 769.30889 52.599021 C 776.709254 55.909385 783.026789 60.364453 788.261495 65.95804 C 793.409574 71.663003 797.400573 78.271355 800.24068 85.789283 C 802.969409 93.412401 804.33068 101.567652 804.33068 110.255036 C 804.33068 118.911482 802.969409 126.992482 800.24068 134.51041 C 797.400573 142.164466 793.409574 148.840881 788.261495 154.545844 C 783.026789 160.226057 776.709254 164.718251 769.30889 168.034803 C 761.877588 171.345166 753.555272 172.997254 744.341942 172.997254 L 729.980533 172.997254 C 728.588324 172.997254 727.449806 172.483684 726.558793 171.456543 C 725.525464 170.534591 725.011894 169.396074 725.011894 168.034803 L 725.011894 52.599021 C 725.011894 51.23775 725.525464 50.037356 726.558793 49.010216 C 727.449806 48.119202 728.588324 47.673695 729.980533 47.673695 Z M 744.341942 148.370624 C 744.341942 149.985586 744.911201 151.235481 746.055906 152.126494 C 747.058296 153.153635 748.363879 153.562017 749.978841 153.339263 C 755.430113 152.640065 760.275 151.037478 764.507316 148.537689 C 768.733443 146.031713 772.272748 142.845101 775.112854 138.977854 C 777.946773 135.215796 780.118619 130.834978 781.622205 125.823026 C 782.983476 120.8977 783.670299 115.706307 783.670299 110.255036 C 783.670299 104.772826 782.983476 99.525745 781.622205 94.513793 C 780.118619 89.613217 777.946773 85.2324 775.112854 81.365152 C 772.272748 77.578344 768.733443 74.435045 764.507316 71.929069 C 760.275 69.423093 755.430113 67.839069 749.978841 67.170808 C 748.363879 66.917117 747.058296 67.306935 746.055906 68.340264 C 744.911201 69.367405 744.341942 70.617299 744.341942 72.096134 Z M 871.527967 172.997254 C 855.693911 172.997254 843.448659 166.388902 834.792213 153.172198 C 827.614602 141.978838 824.019609 127.728805 824.019609 110.422101 C 824.019609 101.877031 824.922998 93.956909 826.735964 86.667922 C 828.573679 79.459373 831.259096 73.123275 834.792213 67.672004 C 843.448659 54.337735 855.693911 47.673695 871.527967 47.673695 C 887.392962 47.673695 899.656777 54.337735 908.313223 67.672004 C 911.84634 73.123275 914.531756 79.459373 916.369472 86.667922 C 918.17625 93.956909 919.079639 101.877031 919.079639 110.422101 C 919.079639 127.728805 915.490833 141.978838 908.313223 153.172198 C 899.656777 166.388902 887.392962 172.997254 871.527967 172.997254 Z M 871.527967 66.96043 C 867.215213 66.96043 863.515031 67.764818 860.427421 69.37978 C 857.364561 71.081369 854.802897 73.234652 852.742427 75.852005 C 850.570581 78.605485 848.862805 81.569343 847.606723 84.74358 C 846.356829 88.053943 845.45344 91.314806 844.896556 94.513793 C 844.197358 97.824156 843.795164 100.843703 843.683788 103.572433 C 843.461034 106.412539 843.349658 108.695762 843.349658 110.422101 C 843.349658 112.117502 843.461034 114.345036 843.683788 117.098516 C 843.795164 119.938623 844.197358 122.958169 844.896556 126.157156 C 845.45344 129.331393 846.356829 132.518004 847.606723 135.716991 C 848.862805 139.033542 850.570581 141.997401 852.742427 144.608566 C 854.802897 147.337296 857.364561 149.509142 860.427421 151.124104 C 863.515031 152.819505 867.215213 153.673393 871.527967 153.673393 C 875.871659 153.673393 879.590404 152.819505 882.678014 151.124104 C 885.740874 149.509142 888.35204 147.337296 890.523886 144.608566 C 892.584355 141.997401 894.24263 139.033542 895.492525 135.716991 C 896.748607 132.518004 897.720059 129.331393 898.419257 126.157156 C 898.969953 122.958169 899.359772 119.938623 899.582525 117.098516 C 899.693902 114.345036 899.74959 112.117502 899.74959 110.422101 C 899.74959 108.695762 899.693902 106.412539 899.582525 103.572433 C 899.359772 100.843703 898.969953 97.824156 898.419257 94.513793 C 897.720059 91.314806 896.748607 88.053943 895.492525 84.74358 C 894.24263 81.569343 892.584355 78.605485 890.523886 75.852005 C 888.35204 73.234652 885.740874 71.081369 882.678014 69.37978 C 879.590404 67.764818 875.871659 66.96043 871.527967 66.96043 Z M 871.527967 66.96043 " stroke="#720e00" stroke-width="15.60375" stroke-opacity="1" stroke-miterlimit="4"/><g fill="#e34832" fill-opacity="1"><g transform="translate(118.581247, 130.482202)"><g><path d="M 46.859375 -40.921875 C 49.234375 -38.972656 51.101562 -36.597656 52.46875 -33.796875 C 53.757812 -30.984375 54.550781 -28.066406 54.84375 -25.046875 C 55.125 -22.023438 54.867188 -19.035156 54.078125 -16.078125 C 53.285156 -13.054688 51.957031 -10.359375 50.09375 -7.984375 C 48.21875 -5.609375 45.804688 -3.703125 42.859375 -2.265625 C 39.910156 -0.753906 36.457031 0 32.5 0 L 8.53125 0 C 7.664062 0 6.945312 -0.320312 6.375 -0.96875 C 5.71875 -1.539062 5.390625 -2.257812 5.390625 -3.125 L 5.390625 -76 C 5.390625 -76.863281 5.71875 -77.617188 6.375 -78.265625 C 6.945312 -78.835938 7.664062 -79.125 8.53125 -79.125 L 26.34375 -79.125 C 31.375 -79.125 35.582031 -77.972656 38.96875 -75.671875 C 42.28125 -73.367188 44.765625 -70.488281 46.421875 -67.03125 C 48.078125 -63.582031 48.90625 -59.84375 48.90625 -55.8125 C 48.832031 -51.78125 47.894531 -48.070312 46.09375 -44.6875 C 45.738281 -44.039062 45.628906 -43.359375 45.765625 -42.640625 C 45.910156 -41.921875 46.273438 -41.347656 46.859375 -40.921875 Z M 20.734375 -66.9375 C 19.867188 -66.9375 19.144531 -66.644531 18.5625 -66.0625 C 17.914062 -65.414062 17.59375 -64.660156 17.59375 -63.796875 L 17.59375 -48.796875 C 17.59375 -47.929688 17.914062 -47.210938 18.5625 -46.640625 C 19.144531 -45.992188 19.867188 -45.671875 20.734375 -45.671875 L 26.5625 -45.671875 C 28.789062 -45.671875 30.660156 -46.207031 32.171875 -47.28125 C 33.679688 -48.289062 34.832031 -49.585938 35.625 -51.171875 C 36.414062 -52.753906 36.8125 -54.476562 36.8125 -56.34375 C 36.8125 -58.144531 36.453125 -59.835938 35.734375 -61.421875 C 34.941406 -63.003906 33.789062 -64.335938 32.28125 -65.421875 C 30.769531 -66.429688 28.863281 -66.9375 26.5625 -66.9375 Z M 32.703125 -12.203125 C 34.941406 -12.203125 36.816406 -12.738281 38.328125 -13.8125 C 39.835938 -14.820312 40.988281 -16.117188 41.78125 -17.703125 C 42.5 -19.285156 42.894531 -21.015625 42.96875 -22.890625 C 42.96875 -24.679688 42.609375 -26.367188 41.890625 -27.953125 C 41.097656 -29.535156 39.945312 -30.867188 38.4375 -31.953125 C 36.925781 -32.960938 35.015625 -33.46875 32.703125 -33.46875 L 20.734375 -33.46875 C 19.867188 -33.46875 19.144531 -33.179688 18.5625 -32.609375 C 17.914062 -31.953125 17.59375 -31.191406 17.59375 -30.328125 L 17.59375 -15.328125 C 17.59375 -14.460938 17.914062 -13.742188 18.5625 -13.171875 C 19.144531 -12.523438 19.867188 -12.203125 20.734375 -12.203125 Z M 32.703125 -12.203125 "/></g></g></g><g fill="#e34832" fill-opacity="1"><g transform="translate(180.546204, 130.482202)"><g><path d="M 14.46875 -79.125 C 15.332031 -79.125 16.085938 -78.835938 16.734375 -78.265625 C 17.304688 -77.617188 17.59375 -76.863281 17.59375 -76 L 17.59375 -3.125 C 17.59375 -2.257812 17.304688 -1.539062 16.734375 -0.96875 C 16.085938 -0.320312 15.332031 0 14.46875 0 L 8.53125 0 C 7.664062 0 6.945312 -0.320312 6.375 -0.96875 C 5.71875 -1.539062 5.390625 -2.257812 5.390625 -3.125 L 5.390625 -76 C 5.390625 -76.863281 5.71875 -77.617188 6.375 -78.265625 C 6.945312 -78.835938 7.664062 -79.125 8.53125 -79.125 Z M 14.46875 -79.125 "/></g></g></g><g fill="#e34832" fill-opacity="1"><g transform="translate(205.159465, 130.482202)"><g><path d="M 44.265625 -70.0625 C 44.265625 -69.195312 43.972656 -68.476562 43.390625 -67.90625 C 42.742188 -67.257812 41.988281 -66.9375 41.125 -66.9375 L 20.734375 -66.9375 C 19.867188 -66.9375 19.144531 -66.644531 18.5625 -66.0625 C 17.914062 -65.414062 17.59375 -64.660156 17.59375 -63.796875 L 17.59375 -57.328125 C 17.59375 -56.460938 17.914062 -55.738281 18.5625 -55.15625 C 19.144531 -54.507812 19.867188 -54.1875 20.734375 -54.1875 L 34.21875 -54.1875 C 35.15625 -54.1875 35.945312 -53.898438 36.59375 -53.328125 C 37.164062 -52.679688 37.453125 -51.925781 37.453125 -51.0625 L 37.453125 -45.234375 C 37.453125 -44.367188 37.164062 -43.613281 36.59375 -42.96875 C 35.945312 -42.320312 35.15625 -42 34.21875 -42 L 20.734375 -42 C 19.867188 -42 19.144531 -41.707031 18.5625 -41.125 C 17.914062 -40.476562 17.59375 -39.722656 17.59375 -38.859375 L 17.59375 -15.328125 C 17.59375 -14.460938 17.914062 -13.742188 18.5625 -13.171875 C 19.144531 -12.523438 19.867188 -12.203125 20.734375 -12.203125 L 41.125 -12.203125 C 41.988281 -12.203125 42.742188 -11.910156 43.390625 -11.328125 C 43.972656 -10.679688 44.265625 -9.925781 44.265625 -9.0625 L 44.265625 -3.125 C 44.265625 -2.257812 43.972656 -1.539062 43.390625 -0.96875 C 42.742188 -0.320312 41.988281 0 41.125 0 L 8.53125 0 C 7.664062 0 6.945312 -0.320312 6.375 -0.96875 C 5.71875 -1.539062 5.390625 -2.257812 5.390625 -3.125 L 5.390625 -76 C 5.390625 -76.863281 5.71875 -77.617188 6.375 -78.265625 C 6.945312 -78.835938 7.664062 -79.125 8.53125 -79.125 L 41.125 -79.125 C 41.988281 -79.125 42.742188 -78.835938 43.390625 -78.265625 C 43.972656 -77.617188 44.265625 -76.863281 44.265625 -76 Z M 44.265625 -70.0625 "/></g></g></g><g fill="#e34832" fill-opacity="1"><g transform="translate(256.437086, 130.482202)"><g><path d="M 52.578125 -79.125 C 53.441406 -79.125 54.195312 -78.835938 54.84375 -78.265625 C 55.414062 -77.617188 55.703125 -76.863281 55.703125 -76 L 55.703125 -3.125 C 55.703125 -2.257812 55.414062 -1.539062 54.84375 -0.96875 C 54.195312 -0.320312 53.441406 0 52.578125 0 L 44.265625 0 C 42.960938 0 42.023438 -0.609375 41.453125 -1.828125 L 19.859375 -48.046875 C 19.648438 -48.617188 19.21875 -48.832031 18.5625 -48.6875 C 17.914062 -48.539062 17.59375 -48.144531 17.59375 -47.5 L 17.59375 -3.125 C 17.59375 -2.257812 17.304688 -1.539062 16.734375 -0.96875 C 16.085938 -0.320312 15.296875 0 14.359375 0 L 8.53125 0 C 7.664062 0 6.945312 -0.320312 6.375 -0.96875 C 5.71875 -1.539062 5.390625 -2.257812 5.390625 -3.125 L 5.390625 -76 C 5.390625 -76.863281 5.71875 -77.617188 6.375 -78.265625 C 6.945312 -78.835938 7.664062 -79.125 8.53125 -79.125 L 16.84375 -79.125 C 18.207031 -79.125 19.140625 -78.515625 19.640625 -77.296875 L 41.234375 -31.09375 C 41.453125 -30.519531 41.921875 -30.300781 42.640625 -30.4375 C 43.210938 -30.582031 43.5 -30.976562 43.5 -31.625 L 43.5 -76 C 43.5 -76.863281 43.828125 -77.617188 44.484375 -78.265625 C 45.128906 -78.835938 45.882812 -79.125 46.75 -79.125 Z M 52.578125 -79.125 "/></g></g></g><g fill="#e34832" fill-opacity="1"><g transform="translate(319.157708, 130.482202)"><g><path d="M 55.375 -79.125 C 56.382812 -79.125 57.210938 -78.691406 57.859375 -77.828125 C 58.429688 -77.035156 58.613281 -76.140625 58.40625 -75.140625 C 57.894531 -73.265625 57.535156 -71.820312 57.328125 -70.8125 C 57.035156 -69.8125 56.78125 -68.914062 56.5625 -68.125 C 56.351562 -67.332031 56.140625 -66.503906 55.921875 -65.640625 C 55.628906 -64.703125 55.269531 -63.40625 54.84375 -61.75 C 54.332031 -60.019531 53.71875 -57.753906 53 -54.953125 C 52.207031 -52.140625 51.203125 -48.429688 49.984375 -43.828125 C 48.753906 -39.222656 47.242188 -33.535156 45.453125 -26.765625 C 43.578125 -20.003906 41.378906 -11.875 38.859375 -2.375 C 38.710938 -1.65625 38.351562 -1.078125 37.78125 -0.640625 C 37.207031 -0.210938 36.5625 0 35.84375 0 L 28.0625 0 C 27.34375 0 26.695312 -0.210938 26.125 -0.640625 C 25.550781 -1.078125 25.191406 -1.65625 25.046875 -2.375 C 24.546875 -4.382812 23.789062 -7.226562 22.78125 -10.90625 C 21.769531 -14.5 20.691406 -18.566406 19.546875 -23.109375 C 18.316406 -27.566406 17.054688 -32.316406 15.765625 -37.359375 C 14.390625 -42.316406 13.054688 -47.171875 11.765625 -51.921875 C 10.472656 -56.597656 9.285156 -60.988281 8.203125 -65.09375 C 7.117188 -69.125 6.21875 -72.472656 5.5 -75.140625 C 5.289062 -76.210938 5.472656 -77.109375 6.046875 -77.828125 C 6.691406 -78.691406 7.519531 -79.125 8.53125 -79.125 L 14.578125 -79.125 C 16.160156 -79.125 17.203125 -78.332031 17.703125 -76.75 C 18.273438 -74.664062 19.140625 -71.535156 20.296875 -67.359375 C 21.378906 -63.179688 22.566406 -58.71875 23.859375 -53.96875 C 25.148438 -49.15625 26.410156 -44.441406 27.640625 -39.828125 C 28.785156 -35.222656 29.753906 -31.484375 30.546875 -28.609375 C 30.765625 -27.890625 31.234375 -27.53125 31.953125 -27.53125 C 32.671875 -27.53125 33.101562 -27.890625 33.25 -28.609375 C 33.75 -30.546875 34.394531 -32.882812 35.1875 -35.625 C 35.90625 -38.363281 36.695312 -41.28125 37.5625 -44.375 C 38.351562 -47.46875 39.179688 -50.632812 40.046875 -53.875 C 40.910156 -57.039062 41.738281 -60.097656 42.53125 -63.046875 C 43.320312 -65.992188 44.039062 -68.65625 44.6875 -71.03125 C 45.34375 -73.40625 45.847656 -75.3125 46.203125 -76.75 C 46.703125 -78.332031 47.742188 -79.125 49.328125 -79.125 Z M 55.375 -79.125 "/></g></g></g><g fill="#e34832" fill-opacity="1"><g transform="translate(384.685104, 130.482202)"><g><path d="M 44.265625 -70.0625 C 44.265625 -69.195312 43.972656 -68.476562 43.390625 -67.90625 C 42.742188 -67.257812 41.988281 -66.9375 41.125 -66.9375 L 20.734375 -66.9375 C 19.867188 -66.9375 19.144531 -66.644531 18.5625 -66.0625 C 17.914062 -65.414062 17.59375 -64.660156 17.59375 -63.796875 L 17.59375 -57.328125 C 17.59375 -56.460938 17.914062 -55.738281 18.5625 -55.15625 C 19.144531 -54.507812 19.867188 -54.1875 20.734375 -54.1875 L 34.21875 -54.1875 C 35.15625 -54.1875 35.945312 -53.898438 36.59375 -53.328125 C 37.164062 -52.679688 37.453125 -51.925781 37.453125 -51.0625 L 37.453125 -45.234375 C 37.453125 -44.367188 37.164062 -43.613281 36.59375 -42.96875 C 35.945312 -42.320312 35.15625 -42 34.21875 -42 L 20.734375 -42 C 19.867188 -42 19.144531 -41.707031 18.5625 -41.125 C 17.914062 -40.476562 17.59375 -39.722656 17.59375 -38.859375 L 17.59375 -15.328125 C 17.59375 -14.460938 17.914062 -13.742188 18.5625 -13.171875 C 19.144531 -12.523438 19.867188 -12.203125 20.734375 -12.203125 L 41.125 -12.203125 C 41.988281 -12.203125 42.742188 -11.910156 43.390625 -11.328125 C 43.972656 -10.679688 44.265625 -9.925781 44.265625 -9.0625 L 44.265625 -3.125 C 44.265625 -2.257812 43.972656 -1.539062 43.390625 -0.96875 C 42.742188 -0.320312 41.988281 0 41.125 0 L 8.53125 0 C 7.664062 0 6.945312 -0.320312 6.375 -0.96875 C 5.71875 -1.539062 5.390625 -2.257812 5.390625 -3.125 L 5.390625 -76 C 5.390625 -76.863281 5.71875 -77.617188 6.375 -78.265625 C 6.945312 -78.835938 7.664062 -79.125 8.53125 -79.125 L 41.125 -79.125 C 41.988281 -79.125 42.742188 -78.835938 43.390625 -78.265625 C 43.972656 -77.617188 44.265625 -76.863281 44.265625 -76 Z M 44.265625 -70.0625 "/></g></g></g><g fill="#e34832" fill-opacity="1"><g transform="translate(435.962725, 130.482202)"><g><path d="M 52.578125 -79.125 C 53.441406 -79.125 54.195312 -78.835938 54.84375 -78.265625 C 55.414062 -77.617188 55.703125 -76.863281 55.703125 -76 L 55.703125 -3.125 C 55.703125 -2.257812 55.414062 -1.539062 54.84375 -0.96875 C 54.195312 -0.320312 53.441406 0 52.578125 0 L 44.265625 0 C 42.960938 0 42.023438 -0.609375 41.453125 -1.828125 L 19.859375 -48.046875 C 19.648438 -48.617188 19.21875 -48.832031 18.5625 -48.6875 C 17.914062 -48.539062 17.59375 -48.144531 17.59375 -47.5 L 17.59375 -3.125 C 17.59375 -2.257812 17.304688 -1.539062 16.734375 -0.96875 C 16.085938 -0.320312 15.296875 0 14.359375 0 L 8.53125 0 C 7.664062 0 6.945312 -0.320312 6.375 -0.96875 C 5.71875 -1.539062 5.390625 -2.257812 5.390625 -3.125 L 5.390625 -76 C 5.390625 -76.863281 5.71875 -77.617188 6.375 -78.265625 C 6.945312 -78.835938 7.664062 -79.125 8.53125 -79.125 L 16.84375 -79.125 C 18.207031 -79.125 19.140625 -78.515625 19.640625 -77.296875 L 41.234375 -31.09375 C 41.453125 -30.519531 41.921875 -30.300781 42.640625 -30.4375 C 43.210938 -30.582031 43.5 -30.976562 43.5 -31.625 L 43.5 -76 C 43.5 -76.863281 43.828125 -77.617188 44.484375 -78.265625 C 45.128906 -78.835938 45.882812 -79.125 46.75 -79.125 Z M 52.578125 -79.125 "/></g></g></g><g fill="#e34832" fill-opacity="1"><g transform="translate(498.683338, 130.482202)"><g><path d="M 14.46875 -79.125 C 15.332031 -79.125 16.085938 -78.835938 16.734375 -78.265625 C 17.304688 -77.617188 17.59375 -76.863281 17.59375 -76 L 17.59375 -3.125 C 17.59375 -2.257812 17.304688 -1.539062 16.734375 -0.96875 C 16.085938 -0.320312 15.332031 0 14.46875 0 L 8.53125 0 C 7.664062 0 6.945312 -0.320312 6.375 -0.96875 C 5.71875 -1.539062 5.390625 -2.257812 5.390625 -3.125 L 5.390625 -76 C 5.390625 -76.863281 5.71875 -77.617188 6.375 -78.265625 C 6.945312 -78.835938 7.664062 -79.125 8.53125 -79.125 Z M 14.46875 -79.125 "/></g></g></g><g fill="#e34832" fill-opacity="1"><g transform="translate(523.296579, 130.482202)"><g><path d="M 17.59375 -79.125 C 23.425781 -79.125 28.679688 -78.082031 33.359375 -76 C 38.035156 -73.914062 42.03125 -71.109375 45.34375 -67.578125 C 48.582031 -63.984375 51.097656 -59.8125 52.890625 -55.0625 C 54.617188 -50.238281 55.484375 -45.09375 55.484375 -39.625 C 55.484375 -34.15625 54.617188 -29.046875 52.890625 -24.296875 C 51.097656 -19.472656 48.582031 -15.257812 45.34375 -11.65625 C 42.03125 -8.0625 38.035156 -5.21875 33.359375 -3.125 C 28.679688 -1.039062 23.425781 0 17.59375 0 L 8.53125 0 C 7.664062 0 6.945312 -0.320312 6.375 -0.96875 C 5.71875 -1.539062 5.390625 -2.257812 5.390625 -3.125 L 5.390625 -76 C 5.390625 -76.863281 5.71875 -77.617188 6.375 -78.265625 C 6.945312 -78.835938 7.664062 -79.125 8.53125 -79.125 Z M 17.59375 -15.546875 C 17.59375 -14.535156 17.953125 -13.742188 18.671875 -13.171875 C 19.316406 -12.523438 20.144531 -12.273438 21.15625 -12.421875 C 24.613281 -12.847656 27.671875 -13.851562 30.328125 -15.4375 C 32.992188 -17.019531 35.226562 -19.035156 37.03125 -21.484375 C 38.832031 -23.859375 40.195312 -26.628906 41.125 -29.796875 C 41.988281 -32.890625 42.421875 -36.164062 42.421875 -39.625 C 42.421875 -43.070312 41.988281 -46.378906 41.125 -49.546875 C 40.195312 -52.640625 38.832031 -55.410156 37.03125 -57.859375 C 35.226562 -60.234375 32.992188 -62.210938 30.328125 -63.796875 C 27.671875 -65.378906 24.613281 -66.390625 21.15625 -66.828125 C 20.144531 -66.960938 19.316406 -66.707031 18.671875 -66.0625 C 17.953125 -65.414062 17.59375 -64.625 17.59375 -63.6875 Z M 17.59375 -15.546875 "/></g></g></g><g fill="#e34832" fill-opacity="1"><g transform="translate(585.801317, 130.482202)"><g><path d="M 35.40625 0 C 25.40625 0 17.671875 -4.171875 12.203125 -12.515625 C 7.660156 -19.578125 5.390625 -28.578125 5.390625 -39.515625 C 5.390625 -44.910156 5.96875 -49.910156 7.125 -54.515625 C 8.28125 -59.046875 9.972656 -63.039062 12.203125 -66.5 C 17.671875 -74.914062 25.40625 -79.125 35.40625 -79.125 C 45.414062 -79.125 53.15625 -74.914062 58.625 -66.5 C 60.851562 -63.039062 62.539062 -59.046875 63.6875 -54.515625 C 64.84375 -49.910156 65.421875 -44.910156 65.421875 -39.515625 C 65.421875 -28.578125 63.15625 -19.578125 58.625 -12.515625 C 53.15625 -4.171875 45.414062 0 35.40625 0 Z M 35.40625 -66.9375 C 32.675781 -66.9375 30.335938 -66.429688 28.390625 -65.421875 C 26.453125 -64.335938 24.832031 -62.96875 23.53125 -61.3125 C 22.164062 -59.582031 21.085938 -57.710938 20.296875 -55.703125 C 19.503906 -53.617188 18.925781 -51.566406 18.5625 -49.546875 C 18.132812 -47.460938 17.882812 -45.554688 17.8125 -43.828125 C 17.664062 -42.023438 17.59375 -40.585938 17.59375 -39.515625 C 17.59375 -38.429688 17.664062 -37.023438 17.8125 -35.296875 C 17.882812 -33.503906 18.132812 -31.597656 18.5625 -29.578125 C 18.925781 -27.566406 19.503906 -25.550781 20.296875 -23.53125 C 21.085938 -21.445312 22.164062 -19.578125 23.53125 -17.921875 C 24.832031 -16.191406 26.453125 -14.820312 28.390625 -13.8125 C 30.335938 -12.738281 32.675781 -12.203125 35.40625 -12.203125 C 38.144531 -12.203125 40.484375 -12.738281 42.421875 -13.8125 C 44.367188 -14.820312 46.023438 -16.191406 47.390625 -17.921875 C 48.679688 -19.578125 49.722656 -21.445312 50.515625 -23.53125 C 51.304688 -25.550781 51.921875 -27.566406 52.359375 -29.578125 C 52.710938 -31.597656 52.960938 -33.503906 53.109375 -35.296875 C 53.179688 -37.023438 53.21875 -38.429688 53.21875 -39.515625 C 53.21875 -40.585938 53.179688 -42.023438 53.109375 -43.828125 C 52.960938 -45.554688 52.710938 -47.460938 52.359375 -49.546875 C 51.921875 -51.566406 51.304688 -53.617188 50.515625 -55.703125 C 49.722656 -57.710938 48.679688 -59.582031 47.390625 -61.3125 C 46.023438 -62.96875 44.367188 -64.335938 42.421875 -65.421875 C 40.484375 -66.429688 38.144531 -66.9375 35.40625 -66.9375 Z M 35.40625 -66.9375 "/></g></g></g></svg>