<svg xmlns="http://www.w3.org/2000/svg" xmlns:xlink="http://www.w3.org/1999/xlink" width="426" zoomAndPan="magnify" viewBox="0 0 319.5 149.249994" height="199" preserveAspectRatio="xMidYMid meet" version="1.0"><defs><g/><clipPath id="15d1fda733"><path d="M 0.550781 0 L 205 0 L 205 148.503906 L 0.550781 148.503906 Z M 0.550781 0 " clip-rule="nonzero"/></clipPath><clipPath id="15fbaab2ce"><path d="M 32 0 L 318 0 L 318 148.503906 L 32 148.503906 Z M 32 0 " clip-rule="nonzero"/></clipPath><clipPath id="bc21a13a38"><path d="M 145 0 L 318.453125 0 L 318.453125 148.503906 L 145 148.503906 Z M 145 0 " clip-rule="nonzero"/></clipPath><clipPath id="2d10588ad8"><path d="M 88.5 80.929688 L 230.1875 80.929688 L 230.1875 135.640625 L 88.5 135.640625 Z M 88.5 80.929688 " clip-rule="nonzero"/></clipPath><clipPath id="390a21e7a9"><path d="M 202.730469 80.929688 C 217.839844 80.929688 230.085938 93.179688 230.085938 108.285156 C 230.085938 123.394531 217.839844 135.640625 202.730469 135.640625 L 115.855469 135.640625 C 100.746094 135.640625 88.5 123.394531 88.5 108.285156 C 88.5 93.179688 100.746094 80.929688 115.855469 80.929688 Z M 202.730469 80.929688 " clip-rule="nonzero"/></clipPath><clipPath id="34646528d4"><path d="M 88.511719 80.929688 L 230.289062 80.929688 L 230.289062 135.40625 L 88.511719 135.40625 Z M 88.511719 80.929688 " clip-rule="nonzero"/></clipPath><clipPath id="c5d43a71a0"><path d="M 202.71875 80.929688 C 217.824219 80.929688 230.066406 93.175781 230.066406 108.28125 C 230.066406 123.382812 217.824219 135.628906 202.71875 135.628906 L 115.859375 135.628906 C 100.757812 135.628906 88.511719 123.382812 88.511719 108.28125 C 88.511719 93.175781 100.757812 80.929688 115.859375 80.929688 Z M 202.71875 80.929688 " clip-rule="nonzero"/></clipPath></defs><g clip-path="url(#15d1fda733)"><path stroke-linecap="butt" transform="matrix(0.242456, 0, 0, 0.242456, 15.909533, 8.435399)" fill="none" stroke-linejoin="miter" d="M 108.350247 147.168173 L 108.350247 160.685452 C 108.350247 162.828239 108.076357 164.391024 107.512466 165.357694 C 106.948575 166.340476 105.740236 166.823812 103.887451 166.823812 L 77.948453 166.823812 C 76.27289 166.823812 75.128997 166.38881 74.532883 165.502695 C 73.920658 164.61658 73.630657 163.198796 73.630657 161.249344 L 73.630657 148.279845 C 73.630657 145.492611 73.066766 142.818155 71.955094 140.256478 C 70.843423 137.710911 69.216194 135.616458 67.073407 133.989229 C 64.93062 132.362 62.336721 131.556441 59.259485 131.556441 C 54.716133 131.556441 51.042784 133.199781 48.239439 136.502573 C 45.452205 139.805365 44.066644 143.639825 44.066644 148.005955 L 44.066644 246.590258 C 44.066644 249.474159 44.662757 252.213059 45.871096 254.82307 C 47.079434 257.41697 48.835553 259.511423 51.107229 261.090319 C 53.378905 262.669215 56.101694 263.458662 59.259485 263.458662 C 64.38284 263.458662 68.168967 261.734766 70.633978 258.303085 C 73.098988 254.855293 74.323438 250.956388 74.323438 246.590258 L 74.323438 229.995744 C 74.323438 227.852957 74.62955 226.419062 75.225664 225.677948 C 75.837888 224.936834 76.933449 224.550165 78.512344 224.550165 L 104.580232 224.550165 C 106.159127 224.550165 107.319132 224.8885 108.076357 225.532947 C 108.817472 226.177394 109.188029 227.579067 109.188029 229.721854 L 109.188029 248.684711 C 109.188029 258.721976 106.932464 267.373679 102.421334 274.623709 C 97.910204 281.87374 91.868511 287.415985 84.296257 291.282668 C 76.724003 295.13324 68.281746 297.066581 58.985595 297.066581 C 52.009455 297.066581 45.38776 295.971021 39.120512 293.796012 C 32.837152 291.604892 27.278795 288.414878 22.445442 284.242083 C 17.612088 280.053176 13.825961 274.962044 11.087061 268.968685 C 8.34816 262.975327 6.97871 256.208632 6.97871 248.684711 L 6.97871 146.475393 C 6.97871 139.595919 8.251493 133.199781 10.813171 127.30309 C 13.358737 121.390287 16.967641 116.250821 21.607661 111.884692 C 26.263791 107.518562 31.741592 104.119104 38.073285 101.702427 C 44.388867 99.28575 51.365008 98.077411 58.985595 98.077411 C 67.443964 98.077411 74.790662 99.479084 81.009577 102.266318 C 87.244603 105.053552 92.384069 108.775234 96.427975 113.415254 C 100.471881 118.071384 103.46856 123.323629 105.418013 129.171987 C 107.367465 135.036456 108.350247 141.029814 108.350247 147.168173 Z M 225.623518 146.475393 L 225.623518 248.684711 C 225.623518 256.208632 224.221846 262.975327 221.434612 268.968685 C 218.647378 274.962044 214.829028 280.053176 209.995675 284.242083 C 205.162321 288.414878 199.587853 291.604892 193.272271 293.796012 C 186.940578 295.971021 180.302772 297.066581 173.326632 297.066581 C 166.350491 297.066581 159.761019 295.922688 153.525993 293.651011 C 147.290967 291.379335 141.764832 288.140988 136.931479 283.952082 C 132.098125 279.779286 128.311998 274.688154 125.573098 268.694795 C 122.834197 262.701437 121.448636 256.031409 121.448636 248.684711 L 121.448636 146.475393 C 121.448636 138.935361 122.834197 132.168666 125.573098 126.175307 C 128.311998 120.181949 132.098125 115.090816 136.931479 110.918021 C 141.764832 106.729115 147.290967 103.539101 153.525993 101.364092 C 159.761019 99.172972 166.350491 98.077411 173.326632 98.077411 C 180.302772 98.077411 186.940578 99.172972 193.272271 101.364092 C 199.587853 103.539101 205.162321 106.729115 209.995675 110.918021 C 214.829028 115.090816 218.647378 120.165838 221.434612 126.110863 C 224.221846 132.055888 225.623518 138.838694 225.623518 146.475393 Z M 173.600522 131.556441 C 168.863835 131.556441 165.174375 133.264226 162.516031 136.712018 C 159.873797 140.143699 158.552681 144.090938 158.552681 148.553735 L 158.552681 246.735259 C 158.552681 251.101388 159.825464 254.984182 162.387141 258.36753 C 164.932707 261.766989 168.589945 263.458662 173.326632 263.458662 C 178.159985 263.458662 181.897779 261.911989 184.556123 258.78642 C 187.198357 255.676963 188.519473 251.939169 188.519473 247.57304 L 188.519473 148.553735 C 188.519473 144.090938 187.198357 140.143699 184.556123 136.712018 C 181.897779 133.264226 178.256652 131.556441 173.600522 131.556441 Z M 375.376925 288.414878 L 375.376925 148.424845 C 375.376925 144.058716 374.055809 140.175922 371.413575 136.776463 C 368.755231 133.377004 365.114105 131.685331 360.457974 131.685331 C 355.89851 131.685331 352.321829 133.31256 349.727929 136.567018 C 347.117918 139.821476 345.732356 143.591492 345.539022 147.860954 L 345.539022 288.70488 C 345.539022 290.187108 345.281243 291.44378 344.765686 292.458784 C 344.266239 293.4899 343.170679 294.005457 341.495116 294.005457 L 312.076104 294.005457 C 311.141655 294.005457 310.287763 293.457677 309.498315 292.394339 C 308.708867 291.331002 308.306088 290.042107 308.306088 288.559879 L 308.306088 148.424845 C 308.306088 144.058716 307.001082 140.175922 304.407183 136.776463 C 301.797172 133.377004 298.172156 131.685331 293.532137 131.685331 C 288.779339 131.685331 285.122102 133.377004 282.512091 136.776463 C 279.90208 140.175922 278.613185 144.058716 278.613185 148.424845 L 278.613185 288.559879 C 278.613185 290.042107 278.323184 291.331002 277.775404 292.394339 C 277.211513 293.457677 276.099841 294.005457 274.424279 294.005457 L 245.005266 294.005457 C 244.070818 294.005457 243.233037 293.457677 242.491922 292.394339 C 241.750808 291.331002 241.380251 290.042107 241.380251 288.559879 L 241.380251 146.330392 C 241.380251 139.644253 242.765812 133.360893 245.553046 127.512535 C 248.356392 121.648066 252.142519 116.5086 256.927539 112.094137 C 261.712559 107.679674 267.238693 104.215771 273.522053 101.702427 C 279.789301 99.205194 286.410996 97.948522 293.387136 97.948522 C 299.622163 97.948522 305.615521 98.963526 311.383323 101.009646 C 317.135014 103.055766 322.306702 105.891333 326.850055 109.516348 C 331.409518 105.891333 336.565096 103.055766 342.332898 101.009646 C 348.1007 98.963526 354.094058 97.948522 360.329084 97.948522 C 367.289114 97.948522 373.910808 99.205194 380.194168 101.702427 C 386.461417 104.215771 392.019773 107.679674 396.853127 112.094137 C 401.686481 116.5086 405.50483 121.648066 408.292064 127.512535 C 411.079298 133.360893 412.48097 139.644253 412.48097 146.330392 L 412.48097 288.414878 C 412.48097 289.816551 412.142636 291.089334 411.498188 292.249339 C 410.853741 293.425455 409.725959 294.005457 408.147063 294.005457 L 379.839722 294.005457 C 378.357494 294.005457 377.245822 293.441566 376.504708 292.329895 C 375.747483 291.218223 375.376925 289.913218 375.376925 288.414878 Z M 375.376925 288.414878 " stroke="#0a1e39" stroke-width="64.256172" stroke-opacity="1" stroke-miterlimit="4"/></g><g clip-path="url(#15fbaab2ce)"><path stroke-linecap="butt" transform="matrix(0.242456, 0, 0, 0.242456, 15.909533, 8.435399)" fill="none" stroke-linejoin="miter" d="M 498.385776 195.968934 L 498.385776 151.759859 C 498.385776 146.749283 496.919659 142.673155 493.987424 139.563697 C 491.05519 136.454239 487.172395 134.891455 482.339042 134.891455 L 468.402872 134.891455 L 468.402872 212.563448 L 482.484042 212.563448 C 487.317396 212.563448 491.167968 210.984553 494.051869 207.826762 C 496.93577 204.668971 498.385776 200.705621 498.385776 195.968934 Z M 431.298827 288.70488 L 431.298827 106.455224 C 431.298827 102.830209 432.893834 101.009646 436.051625 101.009646 L 485.271276 101.009646 C 492.42464 101.009646 499.078557 102.282429 505.216916 104.844107 C 511.339164 107.405784 516.688075 110.950243 521.247539 115.509707 C 525.807002 120.069171 529.33535 125.38586 531.848694 131.475885 C 534.362038 137.565911 535.602599 144.090938 535.602599 151.067079 L 535.602599 195.695044 C 535.602599 202.671185 534.362038 209.212323 531.848694 215.350682 C 529.33535 221.489041 525.807002 226.854064 521.247539 231.461861 C 516.688075 236.053547 511.339164 239.662451 505.216916 242.272462 C 499.078557 244.866362 492.42464 246.171367 485.271276 246.171367 L 468.402872 246.171367 L 468.402872 288.70488 C 468.402872 292.233228 466.856199 294.005457 463.795075 294.005457 L 436.051625 294.005457 C 432.893834 294.005457 431.298827 292.233228 431.298827 288.70488 Z M 615.932937 174.492733 L 615.932937 151.35708 C 615.932937 146.330392 614.466819 142.33482 611.534585 139.354252 C 608.60235 136.389795 604.719556 134.891455 599.886203 134.891455 L 585.950033 134.891455 L 585.950033 190.249466 L 598.919532 190.249466 C 604.494 190.249466 608.73124 188.815571 611.59903 185.93167 C 614.482931 183.047769 615.932937 179.24553 615.932937 174.492733 Z M 646.882511 293.860457 L 621.233515 293.860457 C 619.654619 293.860457 618.188502 293.328788 616.835163 292.249339 C 615.481824 291.186001 614.805154 289.623217 614.805154 287.593208 L 614.805154 258.448086 C 614.805154 244.963029 612.388477 235.183543 607.555124 229.093518 C 602.72177 223.003492 595.520073 219.636256 585.950033 218.975698 L 585.950033 288.833769 C 585.950033 292.281561 584.419471 294.005457 581.342236 294.005457 L 553.453785 294.005457 C 550.392661 294.005457 548.862099 292.281561 548.862099 288.833769 L 548.862099 106.455224 C 548.862099 102.830209 550.440995 101.009646 553.598786 101.009646 L 602.818437 101.009646 C 609.971801 101.009646 616.625717 102.314652 622.764077 104.908551 C 628.902436 107.518562 634.235236 111.143578 638.7947 115.783597 C 643.354163 120.439728 646.882511 125.788639 649.395855 131.830331 C 651.909199 137.872023 653.165871 144.380939 653.165871 151.35708 L 653.165871 171.286608 C 653.165871 179.567754 651.248641 186.608339 647.446403 192.408364 C 643.628053 198.224499 638.891367 203.041742 633.220232 206.84398 C 639.535814 212.144558 644.240278 219.330143 647.301402 228.384626 C 650.378637 237.45522 651.909199 248.958601 651.909199 262.910882 L 651.909199 287.995988 C 651.909199 289.220437 651.538642 290.49322 650.781417 291.846559 C 650.040302 293.183787 648.751408 293.860457 646.882511 293.860457 Z M 707.81499 260.397538 L 759.547985 260.397538 C 760.675767 260.397538 761.626327 260.784207 762.415775 261.573654 C 763.205223 262.363102 763.591891 263.555329 763.591891 265.134225 L 763.591891 289.12377 C 763.591891 290.799333 763.205223 292.023782 762.415775 292.81323 C 761.626327 293.602678 760.675767 294.005457 759.547985 294.005457 L 675.463743 294.005457 C 672.305952 294.005457 670.727056 292.233228 670.727056 288.70488 L 670.727056 106.455224 C 670.727056 102.830209 672.305952 101.009646 675.463743 101.009646 L 758.855204 101.009646 C 761.465215 101.009646 762.770221 102.733542 762.770221 106.165223 L 762.770221 129.880879 C 762.770221 133.215893 761.465215 134.891455 758.855204 134.891455 L 707.81499 134.891455 L 707.81499 179.664421 L 748.54405 179.664421 C 749.752388 179.664421 750.799615 180.034978 751.669618 180.776092 C 752.555733 181.517207 753.006846 182.773879 753.006846 184.529997 L 753.006846 208.374542 C 753.006846 210.050104 752.587956 211.258443 751.750174 211.999557 C 750.912393 212.756782 749.832944 213.12734 748.54405 213.12734 L 707.81499 213.12734 Z M 875.290694 294.005457 L 846.983352 294.005457 C 845.597791 294.005457 844.502231 293.441566 843.712783 292.329895 C 842.923335 291.218223 842.520556 289.913218 842.520556 288.414878 L 842.520556 148.424845 C 842.520556 144.058716 841.21555 140.175922 838.621651 136.776463 C 836.01164 133.377004 832.386624 131.685331 827.746605 131.685331 C 823.009918 131.685331 819.33657 133.377004 816.726559 136.776463 C 814.116548 140.175922 812.827653 144.058716 812.827653 148.424845 L 812.827653 288.559879 C 812.827653 290.042107 812.521541 291.331002 811.909316 292.394339 C 811.313203 293.457677 810.217642 294.005457 808.638747 294.005457 L 779.219734 294.005457 C 778.188619 294.005457 777.334726 293.457677 776.641946 292.394339 C 775.933054 291.331002 775.594719 290.042107 775.594719 288.559879 L 775.594719 146.330392 C 775.594719 139.644253 776.98028 133.360893 779.767514 127.512535 C 782.570859 121.648066 786.356987 116.5086 791.142007 112.094137 C 795.927027 107.679674 801.453161 104.215771 807.736521 101.702427 C 814.003769 99.205194 820.625464 97.948522 827.601604 97.948522 C 834.577745 97.948522 841.199439 99.205194 847.466688 101.702427 C 853.750048 104.215771 859.308404 107.679674 864.141758 112.094137 C 868.975112 116.5086 872.77735 121.648066 875.564584 127.512535 C 878.367929 133.360893 879.75349 139.644253 879.75349 146.330392 L 879.75349 288.414878 C 879.75349 289.816551 879.399044 291.089334 878.706264 292.249339 C 878.013483 293.425455 876.869589 294.005457 875.290694 294.005457 Z M 875.290694 294.005457 " stroke="#0a1e39" stroke-width="64.256172" stroke-opacity="1" stroke-miterlimit="4"/></g><g clip-path="url(#bc21a13a38)"><path stroke-linecap="butt" transform="matrix(0.242456, 0, 0, 0.242456, 15.909533, 8.435399)" fill="none" stroke-linejoin="miter" d="M 935.675392 134.891455 L 935.675392 260.397538 L 950.175453 260.397538 C 954.831584 260.204204 958.553266 258.51253 961.3405 255.306406 C 964.127734 252.100281 965.513295 248.12082 965.513295 243.384133 L 965.513295 152.049861 C 965.513295 146.185392 964.031067 141.867596 961.050499 139.080362 C 958.086042 136.293128 954.219359 134.891455 949.482672 134.891455 Z M 898.587458 288.70488 L 898.587458 106.455224 C 898.587458 102.830209 900.166354 101.009646 903.324145 101.009646 L 951.722126 101.009646 C 961.388833 101.106313 970.056648 103.055766 977.725569 106.874115 C 985.39449 110.676353 991.452293 116.23471 995.91509 123.533074 C 1000.377886 130.831438 1002.61734 139.821476 1002.61734 150.519299 L 1002.61734 244.495805 C 1002.61734 255.193628 1000.377886 264.183665 995.91509 271.482029 C 991.452293 278.780393 985.39449 284.33875 977.725569 288.140988 C 970.056648 291.959338 961.469389 293.90879 951.996016 294.005457 L 903.324145 294.005457 C 900.166354 294.005457 898.587458 292.233228 898.587458 288.70488 Z M 1056.718679 106.455224 L 1056.718679 288.70488 C 1056.718679 292.233228 1055.188117 294.005457 1052.110881 294.005457 L 1024.222431 294.005457 C 1021.161307 294.005457 1019.630745 292.233228 1019.630745 288.70488 L 1019.630745 106.455224 C 1019.630745 102.830209 1021.161307 101.009646 1024.222431 101.009646 L 1052.110881 101.009646 C 1055.188117 101.009646 1056.718679 102.830209 1056.718679 106.455224 Z M 1177.745854 294.005457 L 1148.052951 294.005457 C 1146.651279 294.005457 1145.523496 293.715456 1144.637382 293.167676 C 1143.751267 292.603785 1143.026264 291.347113 1142.478484 289.39766 L 1126.157859 239.485228 L 1124.627297 232.637977 L 1123.515626 239.614118 L 1107.340003 289.39766 C 1106.776111 291.347113 1106.083331 292.603785 1105.245549 293.167676 C 1104.407768 293.715456 1103.19943 294.005457 1101.620534 294.005457 L 1072.056521 294.005457 C 1070.848182 294.005457 1069.849289 293.506011 1069.059842 292.53934 C 1068.270394 291.556558 1068.189838 290.235442 1068.850396 288.559879 L 1105.93833 194.583373 L 1105.93833 194.438372 L 1069.817067 106.584114 C 1069.365954 105.279108 1069.430399 104.038548 1070.026512 102.830209 C 1070.638737 101.621871 1071.734297 101.009646 1073.313193 101.009646 L 1103.006095 101.009646 C 1105.889996 101.009646 1107.758893 102.636875 1108.580563 105.891333 L 1123.515626 155.255985 L 1124.756187 162.924906 L 1126.012859 155.255985 L 1141.350701 105.891333 C 1142.107926 102.636875 1143.912379 101.009646 1146.79628 101.009646 L 1176.505293 101.009646 C 1178.084189 101.009646 1179.147527 101.621871 1179.711418 102.830209 C 1180.259198 104.038548 1180.307532 105.279108 1179.840307 106.584114 L 1143.735156 194.438372 L 1180.823089 288.559879 C 1181.564203 290.235442 1181.548092 291.556558 1180.742533 292.53934 C 1179.953086 293.506011 1178.954192 294.005457 1177.745854 294.005457 Z M 1177.745854 294.005457 " stroke="#0a1e39" stroke-width="64.256172" stroke-opacity="1" stroke-miterlimit="4"/></g><g fill="#f7b62c" fill-opacity="1"><g transform="translate(15.909533, 79.717427)"><g><path d="M 26.265625 -35.59375 L 26.265625 -32.3125 C 26.265625 -31.800781 26.195312 -31.425781 26.0625 -31.1875 C 25.925781 -30.945312 25.632812 -30.828125 25.1875 -30.828125 L 18.890625 -30.828125 C 18.484375 -30.828125 18.207031 -30.929688 18.0625 -31.140625 C 17.914062 -31.359375 17.84375 -31.707031 17.84375 -32.1875 L 17.84375 -35.328125 C 17.84375 -36.003906 17.707031 -36.648438 17.4375 -37.265625 C 17.164062 -37.890625 16.769531 -38.398438 16.25 -38.796875 C 15.738281 -39.191406 15.113281 -39.390625 14.375 -39.390625 C 13.269531 -39.390625 12.378906 -38.988281 11.703125 -38.1875 C 11.023438 -37.382812 10.6875 -36.453125 10.6875 -35.390625 L 10.6875 -11.5 C 10.6875 -10.800781 10.832031 -10.132812 11.125 -9.5 C 11.414062 -8.863281 11.835938 -8.351562 12.390625 -7.96875 C 12.941406 -7.59375 13.601562 -7.40625 14.375 -7.40625 C 15.613281 -7.40625 16.53125 -7.820312 17.125 -8.65625 C 17.71875 -9.488281 18.015625 -10.4375 18.015625 -11.5 L 18.015625 -15.515625 C 18.015625 -16.035156 18.085938 -16.382812 18.234375 -16.5625 C 18.378906 -16.738281 18.644531 -16.828125 19.03125 -16.828125 L 25.359375 -16.828125 C 25.734375 -16.828125 26.007812 -16.75 26.1875 -16.59375 C 26.375 -16.4375 26.46875 -16.097656 26.46875 -15.578125 L 26.46875 -10.984375 C 26.46875 -8.546875 25.921875 -6.445312 24.828125 -4.6875 C 23.734375 -2.9375 22.269531 -1.59375 20.4375 -0.65625 C 18.601562 0.28125 16.554688 0.75 14.296875 0.75 C 12.609375 0.75 11.003906 0.484375 9.484375 -0.046875 C 7.960938 -0.578125 6.613281 -1.347656 5.4375 -2.359375 C 4.269531 -3.378906 3.351562 -4.613281 2.6875 -6.0625 C 2.019531 -7.519531 1.6875 -9.160156 1.6875 -10.984375 L 1.6875 -35.765625 C 1.6875 -37.429688 1.992188 -38.976562 2.609375 -40.40625 C 3.234375 -41.84375 4.109375 -43.085938 5.234375 -44.140625 C 6.367188 -45.203125 7.703125 -46.023438 9.234375 -46.609375 C 10.765625 -47.203125 12.453125 -47.5 14.296875 -47.5 C 16.347656 -47.5 18.128906 -47.160156 19.640625 -46.484375 C 21.148438 -45.804688 22.394531 -44.90625 23.375 -43.78125 C 24.351562 -42.65625 25.078125 -41.378906 25.546875 -39.953125 C 26.023438 -38.535156 26.265625 -37.082031 26.265625 -35.59375 Z M 26.265625 -35.59375 "/></g></g></g><g fill="#f7b62c" fill-opacity="1"><g transform="translate(43.666606, 79.717427)"><g><path d="M 26.9375 -35.765625 L 26.9375 -10.984375 C 26.9375 -9.160156 26.597656 -7.519531 25.921875 -6.0625 C 25.253906 -4.613281 24.332031 -3.378906 23.15625 -2.359375 C 21.988281 -1.347656 20.632812 -0.578125 19.09375 -0.046875 C 17.5625 0.484375 15.953125 0.75 14.265625 0.75 C 12.578125 0.75 10.976562 0.472656 9.46875 -0.078125 C 7.957031 -0.628906 6.613281 -1.410156 5.4375 -2.421875 C 4.269531 -3.441406 3.351562 -4.675781 2.6875 -6.125 C 2.019531 -7.582031 1.6875 -9.203125 1.6875 -10.984375 L 1.6875 -35.765625 C 1.6875 -37.585938 2.019531 -39.222656 2.6875 -40.671875 C 3.351562 -42.128906 4.269531 -43.363281 5.4375 -44.375 C 6.613281 -45.394531 7.957031 -46.171875 9.46875 -46.703125 C 10.976562 -47.234375 12.578125 -47.5 14.265625 -47.5 C 15.953125 -47.5 17.5625 -47.234375 19.09375 -46.703125 C 20.632812 -46.171875 21.988281 -45.394531 23.15625 -44.375 C 24.332031 -43.363281 25.253906 -42.132812 25.921875 -40.6875 C 26.597656 -39.25 26.9375 -37.609375 26.9375 -35.765625 Z M 14.328125 -39.390625 C 13.179688 -39.390625 12.285156 -38.96875 11.640625 -38.125 C 11.003906 -37.289062 10.6875 -36.335938 10.6875 -35.265625 L 10.6875 -11.453125 C 10.6875 -10.398438 10.992188 -9.460938 11.609375 -8.640625 C 12.234375 -7.816406 13.117188 -7.40625 14.265625 -7.40625 C 15.441406 -7.40625 16.347656 -7.78125 16.984375 -8.53125 C 17.628906 -9.289062 17.953125 -10.195312 17.953125 -11.25 L 17.953125 -35.265625 C 17.953125 -36.335938 17.628906 -37.289062 16.984375 -38.125 C 16.347656 -38.96875 15.460938 -39.390625 14.328125 -39.390625 Z M 14.328125 -39.390625 "/></g></g><g transform="translate(72.302711, 79.717427)"><g><path d="M 34.625 -1.359375 L 34.625 -35.296875 C 34.625 -36.347656 34.300781 -37.285156 33.65625 -38.109375 C 33.007812 -38.929688 32.125 -39.34375 31 -39.34375 C 29.894531 -39.34375 29.023438 -38.945312 28.390625 -38.15625 C 27.765625 -37.375 27.425781 -36.460938 27.375 -35.421875 L 27.375 -1.28125 C 27.375 -0.925781 27.3125 -0.625 27.1875 -0.375 C 27.070312 -0.125 26.8125 0 26.40625 0 L 19.265625 0 C 19.046875 0 18.835938 -0.128906 18.640625 -0.390625 C 18.453125 -0.648438 18.359375 -0.957031 18.359375 -1.3125 L 18.359375 -35.296875 C 18.359375 -36.347656 18.039062 -37.285156 17.40625 -38.109375 C 16.78125 -38.929688 15.898438 -39.34375 14.765625 -39.34375 C 13.617188 -39.34375 12.726562 -38.929688 12.09375 -38.109375 C 11.46875 -37.285156 11.15625 -36.347656 11.15625 -35.296875 L 11.15625 -1.3125 C 11.15625 -0.957031 11.085938 -0.648438 10.953125 -0.390625 C 10.816406 -0.128906 10.546875 0 10.140625 0 L 3.015625 0 C 2.785156 0 2.578125 -0.128906 2.390625 -0.390625 C 2.210938 -0.648438 2.125 -0.957031 2.125 -1.3125 L 2.125 -35.796875 C 2.125 -37.421875 2.460938 -38.941406 3.140625 -40.359375 C 3.816406 -41.785156 4.734375 -43.03125 5.890625 -44.09375 C 7.054688 -45.164062 8.398438 -46.003906 9.921875 -46.609375 C 11.441406 -47.222656 13.046875 -47.53125 14.734375 -47.53125 C 16.242188 -47.53125 17.695312 -47.28125 19.09375 -46.78125 C 20.5 -46.289062 21.753906 -45.601562 22.859375 -44.71875 C 23.960938 -45.601562 25.210938 -46.289062 26.609375 -46.78125 C 28.003906 -47.28125 29.457031 -47.53125 30.96875 -47.53125 C 32.65625 -47.53125 34.257812 -47.222656 35.78125 -46.609375 C 37.300781 -46.003906 38.644531 -45.164062 39.8125 -44.09375 C 40.988281 -43.03125 41.914062 -41.785156 42.59375 -40.359375 C 43.269531 -38.941406 43.609375 -37.421875 43.609375 -35.796875 L 43.609375 -1.359375 C 43.609375 -1.015625 43.53125 -0.703125 43.375 -0.421875 C 43.21875 -0.140625 42.945312 0 42.5625 0 L 35.703125 0 C 35.335938 0 35.066406 -0.132812 34.890625 -0.40625 C 34.710938 -0.675781 34.625 -0.992188 34.625 -1.359375 Z M 34.625 -1.359375 "/></g></g></g><g fill="#4acc23" fill-opacity="1"><g transform="translate(118.047861, 79.717427)"><g><path d="M 18.6875 -23.765625 L 18.6875 -34.484375 C 18.6875 -35.703125 18.332031 -36.6875 17.625 -37.4375 C 16.914062 -38.195312 15.976562 -38.578125 14.8125 -38.578125 L 11.421875 -38.578125 L 11.421875 -19.75 L 14.84375 -19.75 C 16.007812 -19.75 16.941406 -20.128906 17.640625 -20.890625 C 18.335938 -21.660156 18.6875 -22.617188 18.6875 -23.765625 Z M 2.4375 -1.28125 L 2.4375 -45.46875 C 2.4375 -46.34375 2.816406 -46.78125 3.578125 -46.78125 L 15.515625 -46.78125 C 17.253906 -46.78125 18.863281 -46.46875 20.34375 -45.84375 C 21.832031 -45.226562 23.128906 -44.367188 24.234375 -43.265625 C 25.335938 -42.160156 26.191406 -40.867188 26.796875 -39.390625 C 27.410156 -37.921875 27.71875 -36.34375 27.71875 -34.65625 L 27.71875 -23.828125 C 27.71875 -22.140625 27.410156 -20.550781 26.796875 -19.0625 C 26.191406 -17.570312 25.335938 -16.269531 24.234375 -15.15625 C 23.128906 -14.039062 21.832031 -13.164062 20.34375 -12.53125 C 18.863281 -11.90625 17.253906 -11.59375 15.515625 -11.59375 L 11.421875 -11.59375 L 11.421875 -1.28125 C 11.421875 -0.425781 11.050781 0 10.3125 0 L 3.578125 0 C 2.816406 0 2.4375 -0.425781 2.4375 -1.28125 Z M 2.4375 -1.28125 "/></g></g></g><g fill="#4acc23" fill-opacity="1"><g transform="translate(146.548728, 79.717427)"><g><path d="M 18.6875 -28.96875 L 18.6875 -34.578125 C 18.6875 -35.796875 18.332031 -36.765625 17.625 -37.484375 C 16.914062 -38.210938 15.976562 -38.578125 14.8125 -38.578125 L 11.421875 -38.578125 L 11.421875 -25.15625 L 14.578125 -25.15625 C 15.921875 -25.15625 16.941406 -25.503906 17.640625 -26.203125 C 18.335938 -26.898438 18.6875 -27.820312 18.6875 -28.96875 Z M 26.203125 -0.03125 L 19.984375 -0.03125 C 19.597656 -0.03125 19.238281 -0.160156 18.90625 -0.421875 C 18.582031 -0.679688 18.421875 -1.0625 18.421875 -1.5625 L 18.421875 -8.625 C 18.421875 -11.882812 17.832031 -14.253906 16.65625 -15.734375 C 15.488281 -17.210938 13.742188 -18.03125 11.421875 -18.1875 L 11.421875 -1.25 C 11.421875 -0.414062 11.050781 0 10.3125 0 L 3.546875 0 C 2.804688 0 2.4375 -0.414062 2.4375 -1.25 L 2.4375 -45.46875 C 2.4375 -46.34375 2.816406 -46.78125 3.578125 -46.78125 L 15.515625 -46.78125 C 17.253906 -46.78125 18.863281 -46.460938 20.34375 -45.828125 C 21.832031 -45.203125 23.128906 -44.328125 24.234375 -43.203125 C 25.335938 -42.078125 26.191406 -40.78125 26.796875 -39.3125 C 27.410156 -37.851562 27.71875 -36.273438 27.71875 -34.578125 L 27.71875 -29.75 C 27.71875 -27.738281 27.253906 -26.03125 26.328125 -24.625 C 25.410156 -23.21875 24.265625 -22.050781 22.890625 -21.125 C 24.421875 -19.84375 25.554688 -18.101562 26.296875 -15.90625 C 27.046875 -13.707031 27.421875 -10.914062 27.421875 -7.53125 L 27.421875 -1.453125 C 27.421875 -1.160156 27.328125 -0.847656 27.140625 -0.515625 C 26.960938 -0.191406 26.648438 -0.03125 26.203125 -0.03125 Z M 26.203125 -0.03125 "/></g></g><g transform="translate(176.097672, 79.717427)"><g><path d="M 11.421875 -8.140625 L 23.96875 -8.140625 C 24.238281 -8.140625 24.46875 -8.046875 24.65625 -7.859375 C 24.851562 -7.671875 24.953125 -7.382812 24.953125 -7 L 24.953125 -1.1875 C 24.953125 -0.78125 24.851562 -0.476562 24.65625 -0.28125 C 24.46875 -0.09375 24.238281 0 23.96875 0 L 3.578125 0 C 2.816406 0 2.4375 -0.425781 2.4375 -1.28125 L 2.4375 -45.46875 C 2.4375 -46.34375 2.816406 -46.78125 3.578125 -46.78125 L 23.796875 -46.78125 C 24.429688 -46.78125 24.75 -46.363281 24.75 -45.53125 L 24.75 -39.796875 C 24.75 -38.984375 24.429688 -38.578125 23.796875 -38.578125 L 11.421875 -38.578125 L 11.421875 -27.71875 L 21.296875 -27.71875 C 21.585938 -27.71875 21.835938 -27.628906 22.046875 -27.453125 C 22.265625 -27.273438 22.375 -26.96875 22.375 -26.53125 L 22.375 -20.75 C 22.375 -20.34375 22.269531 -20.050781 22.0625 -19.875 C 21.863281 -19.695312 21.609375 -19.609375 21.296875 -19.609375 L 11.421875 -19.609375 Z M 11.421875 -8.140625 "/></g></g><g transform="translate(201.826215, 79.717427)"><g><path d="M 26.296875 0 L 19.4375 0 C 19.101562 0 18.835938 -0.132812 18.640625 -0.40625 C 18.453125 -0.675781 18.359375 -0.992188 18.359375 -1.359375 L 18.359375 -35.296875 C 18.359375 -36.347656 18.039062 -37.285156 17.40625 -38.109375 C 16.78125 -38.929688 15.898438 -39.34375 14.765625 -39.34375 C 13.617188 -39.34375 12.726562 -38.929688 12.09375 -38.109375 C 11.46875 -37.285156 11.15625 -36.347656 11.15625 -35.296875 L 11.15625 -1.3125 C 11.15625 -0.957031 11.082031 -0.648438 10.9375 -0.390625 C 10.789062 -0.128906 10.523438 0 10.140625 0 L 3.015625 0 C 2.765625 0 2.550781 -0.128906 2.375 -0.390625 C 2.207031 -0.648438 2.125 -0.957031 2.125 -1.3125 L 2.125 -35.796875 C 2.125 -37.421875 2.460938 -38.941406 3.140625 -40.359375 C 3.816406 -41.785156 4.734375 -43.03125 5.890625 -44.09375 C 7.054688 -45.164062 8.398438 -46.003906 9.921875 -46.609375 C 11.441406 -47.222656 13.046875 -47.53125 14.734375 -47.53125 C 16.429688 -47.53125 18.039062 -47.222656 19.5625 -46.609375 C 21.082031 -46.003906 22.425781 -45.164062 23.59375 -44.09375 C 24.769531 -43.03125 25.691406 -41.785156 26.359375 -40.359375 C 27.035156 -38.941406 27.375 -37.421875 27.375 -35.796875 L 27.375 -1.359375 C 27.375 -1.015625 27.289062 -0.703125 27.125 -0.421875 C 26.957031 -0.140625 26.679688 0 26.296875 0 Z M 26.296875 0 "/></g></g></g><g fill="#0095a9" fill-opacity="1"><g transform="translate(231.342947, 79.717427)"><g><path d="M 11.421875 -38.578125 L 11.421875 -8.140625 L 14.9375 -8.140625 C 16.0625 -8.191406 16.960938 -8.601562 17.640625 -9.375 C 18.316406 -10.15625 18.65625 -11.117188 18.65625 -12.265625 L 18.65625 -34.421875 C 18.65625 -35.835938 18.296875 -36.882812 17.578125 -37.5625 C 16.859375 -38.238281 15.921875 -38.578125 14.765625 -38.578125 Z M 2.4375 -1.28125 L 2.4375 -45.46875 C 2.4375 -46.34375 2.816406 -46.78125 3.578125 -46.78125 L 15.3125 -46.78125 C 17.65625 -46.757812 19.753906 -46.285156 21.609375 -45.359375 C 23.472656 -44.441406 24.945312 -43.097656 26.03125 -41.328125 C 27.113281 -39.554688 27.65625 -37.375 27.65625 -34.78125 L 27.65625 -12 C 27.65625 -9.40625 27.113281 -7.222656 26.03125 -5.453125 C 24.945312 -3.691406 23.472656 -2.347656 21.609375 -1.421875 C 19.753906 -0.492188 17.675781 -0.0195312 15.375 0 L 3.578125 0 C 2.816406 0 2.4375 -0.425781 2.4375 -1.28125 Z M 2.4375 -1.28125 "/></g></g></g><g fill="#0095a9" fill-opacity="1"><g transform="translate(260.689035, 79.717427)"><g><path d="M 11.421875 -45.46875 L 11.421875 -1.28125 C 11.421875 -0.425781 11.050781 0 10.3125 0 L 3.546875 0 C 2.804688 0 2.4375 -0.425781 2.4375 -1.28125 L 2.4375 -45.46875 C 2.4375 -46.34375 2.804688 -46.78125 3.546875 -46.78125 L 10.3125 -46.78125 C 11.050781 -46.78125 11.421875 -46.34375 11.421875 -45.46875 Z M 11.421875 -45.46875 "/></g></g><g transform="translate(274.584476, 79.717427)"><g><path d="M 26.875 0 L 19.671875 0 C 19.335938 0 19.0625 -0.0664062 18.84375 -0.203125 C 18.632812 -0.335938 18.460938 -0.640625 18.328125 -1.109375 L 14.375 -13.21875 L 14 -14.875 L 13.71875 -13.1875 L 9.796875 -1.109375 C 9.660156 -0.640625 9.492188 -0.335938 9.296875 -0.203125 C 9.097656 -0.0664062 8.804688 0 8.421875 0 L 1.25 0 C 0.957031 0 0.710938 -0.113281 0.515625 -0.34375 C 0.328125 -0.582031 0.3125 -0.90625 0.46875 -1.3125 L 9.46875 -24.109375 L 9.46875 -24.140625 L 0.703125 -45.4375 C 0.597656 -45.75 0.617188 -46.050781 0.765625 -46.34375 C 0.910156 -46.632812 1.175781 -46.78125 1.5625 -46.78125 L 8.75 -46.78125 C 9.445312 -46.78125 9.898438 -46.390625 10.109375 -45.609375 L 13.71875 -33.640625 L 14.03125 -31.78125 L 14.328125 -33.640625 L 18.046875 -45.609375 C 18.234375 -46.390625 18.675781 -46.78125 19.375 -46.78125 L 26.578125 -46.78125 C 26.953125 -46.78125 27.207031 -46.632812 27.34375 -46.34375 C 27.476562 -46.050781 27.488281 -45.75 27.375 -45.4375 L 18.625 -24.140625 L 27.625 -1.3125 C 27.800781 -0.90625 27.789062 -0.582031 27.59375 -0.34375 C 27.40625 -0.113281 27.164062 0 26.875 0 Z M 26.875 0 "/></g></g></g><g clip-path="url(#2d10588ad8)"><g clip-path="url(#390a21e7a9)"><path fill="#e23f30" d="M 88.5 80.929688 L 230.1875 80.929688 L 230.1875 135.640625 L 88.5 135.640625 Z M 88.5 80.929688 " fill-opacity="1" fill-rule="nonzero"/></g></g><g clip-path="url(#34646528d4)"><g clip-path="url(#c5d43a71a0)"><path stroke-linecap="butt" transform="matrix(0.74625, 0, 0, 0.74625, 88.511382, 80.930886)" fill="none" stroke-linejoin="miter" d="M 153.041711 -0.00160634 C 173.283547 -0.00160634 189.68849 16.408571 189.68849 36.650407 C 189.68849 56.887008 173.283547 73.297185 153.041711 73.297185 L 36.64723 73.297185 C 16.410628 73.297185 0.000451182 56.887008 0.000451182 36.650407 C 0.000451182 16.408571 16.410628 -0.00160634 36.64723 -0.00160634 Z M 153.041711 -0.00160634 " stroke="#0c203b" stroke-width="20" stroke-opacity="1" stroke-miterlimit="4"/></g></g><g fill="#ffffff" fill-opacity="1"><g transform="translate(117.550193, 124.287541)"><g><path d="M 13 -16.53125 L 13 -23.984375 C 13 -24.835938 12.753906 -25.523438 12.265625 -26.046875 C 11.773438 -26.578125 11.117188 -26.84375 10.296875 -26.84375 L 7.953125 -26.84375 L 7.953125 -13.734375 L 10.328125 -13.734375 C 11.140625 -13.734375 11.785156 -14 12.265625 -14.53125 C 12.753906 -15.070312 13 -15.738281 13 -16.53125 Z M 1.6875 -0.890625 L 1.6875 -31.640625 C 1.6875 -32.242188 1.957031 -32.546875 2.5 -32.546875 L 10.796875 -32.546875 C 12.003906 -32.546875 13.125 -32.332031 14.15625 -31.90625 C 15.195312 -31.476562 16.097656 -30.878906 16.859375 -30.109375 C 17.628906 -29.335938 18.222656 -28.4375 18.640625 -27.40625 C 19.066406 -26.382812 19.28125 -25.285156 19.28125 -24.109375 L 19.28125 -16.578125 C 19.28125 -15.398438 19.066406 -14.296875 18.640625 -13.265625 C 18.222656 -12.234375 17.628906 -11.328125 16.859375 -10.546875 C 16.097656 -9.773438 15.195312 -9.164062 14.15625 -8.71875 C 13.125 -8.28125 12.003906 -8.0625 10.796875 -8.0625 L 7.953125 -8.0625 L 7.953125 -0.890625 C 7.953125 -0.296875 7.691406 0 7.171875 0 L 2.5 0 C 1.957031 0 1.6875 -0.296875 1.6875 -0.890625 Z M 1.6875 -0.890625 "/></g></g></g><g fill="#ffffff" fill-opacity="1"><g transform="translate(139.543615, 124.287541)"><g><path d="M 15.90625 0 L 2.5 0 C 1.957031 0 1.6875 -0.296875 1.6875 -0.890625 L 1.6875 -31.640625 C 1.6875 -32.242188 1.945312 -32.546875 2.46875 -32.546875 L 7.171875 -32.546875 C 7.691406 -32.546875 7.953125 -32.242188 7.953125 -31.640625 L 7.953125 -5.671875 L 15.90625 -5.671875 C 16.34375 -5.671875 16.5625 -5.40625 16.5625 -4.875 L 16.5625 -0.84375 C 16.5625 -0.28125 16.34375 0 15.90625 0 Z M 15.90625 0 "/></g></g></g><g fill="#ffffff" fill-opacity="1"><g transform="translate(158.785402, 124.287541)"><g><path d="M 7.765625 -24.5625 L 7.765625 -13.25 L 12.765625 -13.25 L 12.765625 -24.5625 C 12.765625 -25.289062 12.546875 -25.941406 12.109375 -26.515625 C 11.671875 -27.085938 11.0625 -27.375 10.28125 -27.375 C 9.476562 -27.375 8.859375 -27.085938 8.421875 -26.515625 C 7.984375 -25.941406 7.765625 -25.289062 7.765625 -24.5625 Z M 19.046875 -24.90625 L 19.046875 -0.9375 C 19.046875 -0.707031 18.988281 -0.492188 18.875 -0.296875 C 18.757812 -0.0976562 18.566406 0 18.296875 0 L 13.53125 0 C 13.289062 0 13.101562 -0.09375 12.96875 -0.28125 C 12.832031 -0.46875 12.765625 -0.6875 12.765625 -0.9375 L 12.765625 -7.765625 L 7.765625 -7.765625 L 7.765625 -0.921875 C 7.765625 -0.671875 7.71875 -0.453125 7.625 -0.265625 C 7.53125 -0.0859375 7.34375 0 7.0625 0 L 2.09375 0 C 1.914062 0 1.769531 -0.0859375 1.65625 -0.265625 C 1.539062 -0.453125 1.484375 -0.671875 1.484375 -0.921875 L 1.484375 -24.90625 C 1.484375 -26.039062 1.71875 -27.097656 2.1875 -28.078125 C 2.65625 -29.066406 3.289062 -29.929688 4.09375 -30.671875 C 4.90625 -31.421875 5.835938 -32.007812 6.890625 -32.4375 C 7.953125 -32.863281 9.070312 -33.078125 10.25 -33.078125 C 11.425781 -33.078125 12.539062 -32.863281 13.59375 -32.4375 C 14.65625 -32.007812 15.59375 -31.421875 16.40625 -30.671875 C 17.226562 -29.929688 17.875 -29.066406 18.34375 -28.078125 C 18.8125 -27.097656 19.046875 -26.039062 19.046875 -24.90625 Z M 19.046875 -24.90625 "/></g></g></g><g fill="#ffffff" fill-opacity="1"><g transform="translate(181.484375, 124.287541)"><g><path d="M 12.890625 -13.078125 L 12.890625 -0.921875 C 12.890625 -0.304688 12.660156 0 12.203125 0 L 7.34375 0 C 6.875 0 6.640625 -0.304688 6.640625 -0.921875 L 6.640625 -13.09375 C 5.554688 -13.457031 4.585938 -13.992188 3.734375 -14.703125 C 2.878906 -15.421875 2.207031 -16.289062 1.71875 -17.3125 C 1.226562 -18.34375 0.984375 -19.492188 0.984375 -20.765625 L 1.015625 -32.015625 C 1.015625 -32.171875 1.050781 -32.296875 1.125 -32.390625 C 1.207031 -32.492188 1.332031 -32.546875 1.5 -32.546875 L 6.6875 -32.546875 C 6.875 -32.546875 7.015625 -32.492188 7.109375 -32.390625 C 7.210938 -32.296875 7.265625 -32.1875 7.265625 -32.0625 L 7.265625 -21.09375 C 7.265625 -20.363281 7.472656 -19.710938 7.890625 -19.140625 C 8.316406 -18.566406 8.941406 -18.28125 9.765625 -18.28125 C 10.578125 -18.28125 11.195312 -18.539062 11.625 -19.0625 C 12.0625 -19.59375 12.28125 -20.222656 12.28125 -20.953125 L 12.28125 -32.015625 C 12.28125 -32.171875 12.320312 -32.296875 12.40625 -32.390625 C 12.488281 -32.492188 12.617188 -32.546875 12.796875 -32.546875 L 18.0625 -32.546875 C 18.394531 -32.546875 18.5625 -32.375 18.5625 -32.03125 L 18.5625 -20.765625 C 18.5625 -19.460938 18.3125 -18.296875 17.8125 -17.265625 C 17.320312 -16.242188 16.648438 -15.378906 15.796875 -14.671875 C 14.941406 -13.972656 13.972656 -13.441406 12.890625 -13.078125 Z M 12.890625 -13.078125 "/></g></g></g></svg>