<svg xmlns="http://www.w3.org/2000/svg" xmlns:xlink="http://www.w3.org/1999/xlink" width="543" zoomAndPan="magnify" viewBox="0 0 407.25 197.999996" height="264" preserveAspectRatio="xMidYMid meet" version="1.0"><defs><g/><clipPath id="131edfc8fe"><path d="M 26.636719 30.632812 L 379.847656 30.632812 L 379.847656 167.015625 L 26.636719 167.015625 Z M 26.636719 30.632812 " clip-rule="nonzero"/></clipPath><clipPath id="00f4b4adb5"><path d="M 311.398438 30.632812 C 349.0625 30.632812 379.589844 61.164062 379.589844 98.824219 C 379.589844 136.484375 349.0625 167.015625 311.398438 167.015625 L 94.828125 167.015625 C 57.167969 167.015625 26.636719 136.484375 26.636719 98.824219 C 26.636719 61.164062 57.167969 30.632812 94.828125 30.632812 Z M 311.398438 30.632812 " clip-rule="nonzero"/></clipPath><clipPath id="40743c6308"><path d="M 26.640625 30.632812 L 379.238281 30.632812 L 379.238281 166.882812 L 26.640625 166.882812 Z M 26.640625 30.632812 " clip-rule="nonzero"/></clipPath><clipPath id="1dd0d2fff4"><path d="M 311.394531 30.632812 C 349.054688 30.632812 379.582031 61.160156 379.582031 98.820312 C 379.582031 136.480469 349.054688 167.011719 311.394531 167.011719 L 94.828125 167.011719 C 57.171875 167.011719 26.640625 136.480469 26.640625 98.820312 C 26.640625 61.160156 57.171875 30.632812 94.828125 30.632812 Z M 311.394531 30.632812 " clip-rule="nonzero"/></clipPath></defs><g clip-path="url(#131edfc8fe)"><g clip-path="url(#00f4b4adb5)"><path fill="#e23f30" d="M 26.636719 30.632812 L 379.847656 30.632812 L 379.847656 167.015625 L 26.636719 167.015625 Z M 26.636719 30.632812 " fill-opacity="1" fill-rule="nonzero"/></g></g><g clip-path="url(#40743c6308)"><g clip-path="url(#1dd0d2fff4)"><path stroke-linecap="butt" transform="matrix(0.748621, 0, 0, 0.748621, 26.641098, 30.632187)" fill="none" stroke-linejoin="miter" d="M 380.370471 0.000835296 C 430.676489 0.000835296 471.454575 40.778922 471.454575 91.08494 C 471.454575 141.390958 430.676489 182.174262 380.370471 182.174262 L 91.083473 182.174262 C 40.782673 182.174262 -0.000631525 141.390958 -0.000631525 91.08494 C -0.000631525 40.778922 40.782673 0.000835296 91.083473 0.000835296 Z M 380.370471 0.000835296 " stroke="#0c203b" stroke-width="46" stroke-opacity="1" stroke-miterlimit="4"/></g></g><g fill="#ffffff" fill-opacity="1"><g transform="translate(99.064732, 137.584259)"><g><path d="M 32.421875 -41.21875 L 32.421875 -59.796875 C 32.421875 -61.910156 31.804688 -63.625 30.578125 -64.9375 C 29.347656 -66.25 27.71875 -66.90625 25.6875 -66.90625 L 19.8125 -66.90625 L 19.8125 -34.234375 L 25.734375 -34.234375 C 27.765625 -34.234375 29.382812 -34.898438 30.59375 -36.234375 C 31.8125 -37.566406 32.421875 -39.226562 32.421875 -41.21875 Z M 4.21875 -2.234375 L 4.21875 -78.859375 C 4.21875 -80.378906 4.882812 -81.140625 6.21875 -81.140625 L 26.90625 -81.140625 C 29.914062 -81.140625 32.710938 -80.601562 35.296875 -79.53125 C 37.878906 -78.457031 40.125 -76.960938 42.03125 -75.046875 C 43.945312 -73.128906 45.429688 -70.890625 46.484375 -68.328125 C 47.546875 -65.773438 48.078125 -63.03125 48.078125 -60.09375 L 48.078125 -41.328125 C 48.078125 -38.398438 47.546875 -35.644531 46.484375 -33.0625 C 45.429688 -30.488281 43.945312 -28.234375 42.03125 -26.296875 C 40.125 -24.359375 37.878906 -22.84375 35.296875 -21.75 C 32.710938 -20.65625 29.914062 -20.109375 26.90625 -20.109375 L 19.8125 -20.109375 L 19.8125 -2.234375 C 19.8125 -0.742188 19.164062 0 17.875 0 L 6.21875 0 C 4.882812 0 4.21875 -0.742188 4.21875 -2.234375 Z M 4.21875 -2.234375 "/></g></g></g><g fill="#ffffff" fill-opacity="1"><g transform="translate(153.887431, 137.584259)"><g><path d="M 39.640625 0 L 6.21875 0 C 4.882812 0 4.21875 -0.742188 4.21875 -2.234375 L 4.21875 -78.859375 C 4.21875 -80.378906 4.863281 -81.140625 6.15625 -81.140625 L 17.875 -81.140625 C 19.164062 -81.140625 19.8125 -80.378906 19.8125 -78.859375 L 19.8125 -14.125 L 39.640625 -14.125 C 40.734375 -14.125 41.28125 -13.460938 41.28125 -12.140625 L 41.28125 -2.109375 C 41.28125 -0.703125 40.734375 0 39.640625 0 Z M 39.640625 0 "/></g></g></g><g fill="#ffffff" fill-opacity="1"><g transform="translate(201.851226, 137.584259)"><g><path d="M 19.34375 -61.21875 L 19.34375 -33.015625 L 31.84375 -33.015625 L 31.84375 -61.21875 C 31.84375 -63.050781 31.289062 -64.679688 30.1875 -66.109375 C 29.09375 -67.535156 27.570312 -68.25 25.625 -68.25 C 23.625 -68.25 22.078125 -67.535156 20.984375 -66.109375 C 19.890625 -64.679688 19.34375 -63.050781 19.34375 -61.21875 Z M 47.484375 -62.09375 L 47.484375 -2.34375 C 47.484375 -1.757812 47.335938 -1.222656 47.046875 -0.734375 C 46.753906 -0.242188 46.273438 0 45.609375 0 L 33.71875 0 C 33.125 0 32.660156 -0.234375 32.328125 -0.703125 C 32.003906 -1.171875 31.84375 -1.71875 31.84375 -2.34375 L 31.84375 -19.34375 L 19.34375 -19.34375 L 19.34375 -2.28125 C 19.34375 -1.65625 19.222656 -1.117188 18.984375 -0.671875 C 18.753906 -0.222656 18.289062 0 17.59375 0 L 5.21875 0 C 4.789062 0 4.425781 -0.222656 4.125 -0.671875 C 3.832031 -1.117188 3.6875 -1.65625 3.6875 -2.28125 L 3.6875 -62.09375 C 3.6875 -64.90625 4.273438 -67.539062 5.453125 -70 C 6.628906 -72.46875 8.222656 -74.628906 10.234375 -76.484375 C 12.242188 -78.335938 14.566406 -79.789062 17.203125 -80.84375 C 19.847656 -81.90625 22.632812 -82.4375 25.5625 -82.4375 C 28.488281 -82.4375 31.269531 -81.90625 33.90625 -80.84375 C 36.550781 -79.789062 38.890625 -78.335938 40.921875 -76.484375 C 42.953125 -74.628906 44.550781 -72.46875 45.71875 -70 C 46.894531 -67.539062 47.484375 -64.90625 47.484375 -62.09375 Z M 47.484375 -62.09375 "/></g></g></g><g fill="#ffffff" fill-opacity="1"><g transform="translate(258.432618, 137.584259)"><g><path d="M 32.125 -32.59375 L 32.125 -2.28125 C 32.125 -0.757812 31.5625 0 30.4375 0 L 18.296875 0 C 17.117188 0 16.53125 -0.757812 16.53125 -2.28125 L 16.53125 -32.65625 C 13.832031 -33.550781 11.414062 -34.890625 9.28125 -36.671875 C 7.15625 -38.453125 5.488281 -40.617188 4.28125 -43.171875 C 3.070312 -45.734375 2.46875 -48.597656 2.46875 -51.765625 L 2.515625 -79.796875 C 2.515625 -80.191406 2.613281 -80.515625 2.8125 -80.765625 C 3.007812 -81.015625 3.320312 -81.140625 3.75 -81.140625 L 16.65625 -81.140625 C 17.125 -81.140625 17.484375 -81.015625 17.734375 -80.765625 C 17.992188 -80.515625 18.125 -80.234375 18.125 -79.921875 L 18.125 -52.59375 C 18.125 -50.757812 18.648438 -49.128906 19.703125 -47.703125 C 20.753906 -46.273438 22.296875 -45.5625 24.328125 -45.5625 C 26.359375 -45.5625 27.910156 -46.210938 28.984375 -47.515625 C 30.066406 -48.828125 30.609375 -50.398438 30.609375 -52.234375 L 30.609375 -79.796875 C 30.609375 -80.191406 30.710938 -80.515625 30.921875 -80.765625 C 31.140625 -81.015625 31.460938 -81.140625 31.890625 -81.140625 L 45.03125 -81.140625 C 45.851562 -81.140625 46.265625 -80.710938 46.265625 -79.859375 L 46.265625 -51.765625 C 46.265625 -48.523438 45.644531 -45.625 44.40625 -43.0625 C 43.175781 -40.5 41.492188 -38.335938 39.359375 -36.578125 C 37.234375 -34.828125 34.820312 -33.5 32.125 -32.59375 Z M 32.125 -32.59375 "/></g></g></g><g fill="#000000" fill-opacity="1"><g transform="translate(357.073757, 135.094301)"><g><path d="M 1.40625 -0.984375 C 1.40625 -1.398438 1.5 -1.710938 1.6875 -1.921875 C 1.875 -2.128906 2.144531 -2.234375 2.5 -2.234375 C 2.851562 -2.234375 3.128906 -2.128906 3.328125 -1.921875 C 3.535156 -1.710938 3.640625 -1.398438 3.640625 -0.984375 C 3.640625 -0.578125 3.535156 -0.265625 3.328125 -0.046875 C 3.128906 0.160156 2.851562 0.265625 2.5 0.265625 C 2.1875 0.265625 1.925781 0.171875 1.71875 -0.015625 C 1.507812 -0.210938 1.40625 -0.535156 1.40625 -0.984375 Z M 1.40625 -0.984375 "/></g></g></g></svg>