<svg xmlns="http://www.w3.org/2000/svg" xmlns:xlink="http://www.w3.org/1999/xlink" width="74" zoomAndPan="magnify" viewBox="0 0 55.5 55.499996" height="74" preserveAspectRatio="xMidYMid meet" version="1.0"><defs><clipPath id="42589b4741"><path d="M 0 0 L 54.261719 0 L 54.261719 54.261719 L 0 54.261719 Z M 0 0 " clip-rule="nonzero"/></clipPath></defs><g clip-path="url(#42589b4741)"><path fill="#000000" d="M 47.625 0.105469 L 6.832031 0.105469 C 3.082031 0.105469 0 3.183594 0 6.914062 L 0 47.523438 C 0 51.253906 3.082031 54.363281 6.832031 54.363281 L 27.128906 54.363281 L 27.128906 35.640625 L 20.425781 35.640625 L 20.425781 27.339844 L 27.128906 27.339844 L 27.128906 20.449219 C 27.128906 14.84375 31.792969 10.425781 37.425781 10.425781 L 44.363281 10.425781 L 44.363281 18.832031 L 40.824219 18.832031 C 38.949219 18.832031 37.449219 18.582031 37.449219 20.449219 L 37.449219 27.339844 L 45.925781 27.339844 L 42.523438 35.640625 L 37.449219 35.640625 L 37.449219 54.363281 L 47.625 54.363281 C 51.375 54.363281 54.46875 51.253906 54.46875 47.523438 L 54.46875 6.914062 C 54.46875 3.183594 51.375 0.105469 47.625 0.105469 Z M 47.625 0.105469 " fill-opacity="1" fill-rule="nonzero"/></g></svg>