<svg xmlns="http://www.w3.org/2000/svg" xmlns:xlink="http://www.w3.org/1999/xlink" width="91" zoomAndPan="magnify" viewBox="0 0 68.25 68.249997" height="91" preserveAspectRatio="xMidYMid meet" version="1.2"><defs><clipPath id="51d6992d21"><path d="M 0 0 L 67 0 L 67 66.765625 L 0 66.765625 Z M 0 0 "/></clipPath></defs><g id="a7008b29d0"><g clip-rule="nonzero" clip-path="url(#51d6992d21)"><path style=" stroke:none;fill-rule:nonzero;fill:#ffffff;fill-opacity:1;" d="M 65.234375 29.976562 L 37.285156 2.03125 C 35.265625 0.0078125 31.988281 0.0078125 29.96875 2.03125 L 2.019531 29.976562 C 0 31.996094 0 35.273438 2.019531 37.292969 C 3.570312 38.84375 5.855469 39.203125 7.75 38.378906 L 7.75 58.996094 C 7.75 63.28125 11.226562 66.757812 15.511719 66.757812 L 51.738281 66.757812 C 56.027344 66.757812 59.503906 63.28125 59.503906 58.996094 L 59.503906 38.378906 C 61.398438 39.203125 63.683594 38.84375 65.234375 37.292969 C 67.253906 35.273438 67.253906 31.996094 65.234375 29.976562 Z M 42.683594 56.40625 C 42.683594 57.835938 41.523438 58.996094 40.097656 58.996094 L 27.15625 58.996094 C 25.726562 58.996094 24.570312 57.835938 24.570312 56.40625 L 24.570312 40.882812 C 24.570312 39.453125 25.726562 38.292969 27.15625 38.292969 L 40.097656 38.292969 C 41.523438 38.292969 42.683594 39.453125 42.683594 40.882812 Z M 42.683594 56.40625 "/></g></g></svg>