<svg xmlns="http://www.w3.org/2000/svg" xmlns:xlink="http://www.w3.org/1999/xlink" width="74" zoomAndPan="magnify" viewBox="0 0 55.5 55.499996" height="74" preserveAspectRatio="xMidYMid meet" version="1.0"><defs><clipPath id="3f1829475f"><path d="M 0 0 L 54.261719 0 L 54.261719 54.261719 L 0 54.261719 Z M 0 0 " clip-rule="nonzero"/></clipPath></defs><g clip-path="url(#3f1829475f)"><path fill="#000000" d="M 27.105469 -0.015625 C 12.128906 -0.015625 -0.015625 12.128906 -0.015625 27.105469 C -0.015625 42.085938 12.128906 54.230469 27.105469 54.230469 C 42.085938 54.230469 54.230469 42.085938 54.230469 27.105469 C 54.230469 12.128906 42.085938 -0.015625 27.105469 -0.015625 Z M 33.546875 41.570312 C 32.152344 42.121094 31.039062 42.539062 30.210938 42.824219 C 29.382812 43.113281 28.417969 43.257812 27.320312 43.257812 C 25.632812 43.257812 24.320312 42.84375 23.386719 42.023438 C 22.449219 41.199219 21.980469 40.15625 21.980469 38.890625 C 21.980469 38.398438 22.015625 37.894531 22.085938 37.378906 C 22.15625 36.867188 22.269531 36.285156 22.425781 35.636719 L 24.167969 29.476562 C 24.320312 28.886719 24.453125 28.324219 24.558594 27.796875 C 24.664062 27.273438 24.714844 26.789062 24.714844 26.351562 C 24.714844 25.566406 24.554688 25.015625 24.230469 24.707031 C 23.90625 24.398438 23.285156 24.242188 22.367188 24.242188 C 21.917969 24.242188 21.453125 24.3125 20.980469 24.453125 C 20.507812 24.59375 20.105469 24.726562 19.765625 24.851562 L 20.230469 22.953125 C 21.371094 22.488281 22.460938 22.089844 23.503906 21.761719 C 24.546875 21.429688 25.53125 21.265625 26.464844 21.265625 C 28.140625 21.265625 29.433594 21.667969 30.339844 22.480469 C 31.246094 23.289062 31.703125 24.339844 31.703125 25.632812 C 31.703125 25.902344 31.671875 26.375 31.609375 27.046875 C 31.542969 27.722656 31.429688 28.34375 31.257812 28.90625 L 29.523438 35.046875 C 29.382812 35.539062 29.253906 36.101562 29.144531 36.734375 C 29.027344 37.367188 28.972656 37.847656 28.972656 38.171875 C 28.972656 38.984375 29.15625 39.542969 29.519531 39.839844 C 29.886719 40.132812 30.519531 40.28125 31.417969 40.28125 C 31.839844 40.28125 32.320312 40.207031 32.851562 40.058594 C 33.382812 39.914062 33.769531 39.78125 34.011719 39.671875 Z M 33.238281 16.632812 C 32.429688 17.386719 31.457031 17.765625 30.316406 17.765625 C 29.175781 17.765625 28.199219 17.386719 27.382812 16.632812 C 26.566406 15.882812 26.15625 14.96875 26.15625 13.898438 C 26.15625 12.832031 26.566406 11.917969 27.382812 11.15625 C 28.195312 10.398438 29.175781 10.019531 30.316406 10.019531 C 31.457031 10.019531 32.429688 10.398438 33.238281 11.15625 C 34.046875 11.917969 34.449219 12.832031 34.449219 13.898438 C 34.449219 14.96875 34.046875 15.882812 33.238281 16.632812 Z M 33.238281 16.632812 " fill-opacity="1" fill-rule="nonzero"/></g></svg>