<svg xmlns="http://www.w3.org/2000/svg" xmlns:xlink="http://www.w3.org/1999/xlink" width="98" zoomAndPan="magnify" viewBox="0 0 73.5 86.249997" height="115" preserveAspectRatio="xMidYMid meet" version="1.2"><defs><clipPath id="61718b4343"><path d="M 0.0703125 0 L 72.191406 0 L 72.191406 84.761719 L 0.0703125 84.761719 Z M 0.0703125 0 "/></clipPath></defs><g id="fd3ea70313"><g clip-rule="nonzero" clip-path="url(#61718b4343)"><path style=" stroke:none;fill-rule:nonzero;fill:#ffffff;fill-opacity:1;" d="M 67.339844 46.566406 L 67.339844 33.625 L 64.609375 34.679688 L 59.753906 29.898438 L 55.722656 32.554688 C 53.636719 29.800781 50.332031 27.558594 46.300781 26.132812 C 49.285156 23.386719 51.164062 19.460938 51.164062 15.09375 C 51.164062 6.804688 44.421875 0.0585938 36.128906 0.0585938 C 27.839844 0.0585938 21.097656 6.804688 21.097656 15.09375 C 21.097656 19.453125 22.972656 23.375 25.945312 26.121094 C 21.910156 27.542969 18.609375 29.785156 16.523438 32.542969 L 12.507812 29.894531 L 7.652344 34.679688 L 4.921875 33.625 L 4.921875 46.566406 C 2.148438 47.316406 0.0742188 50.179688 0.0742188 53.589844 C 0.0742188 57 2.148438 59.863281 4.921875 60.613281 L 4.921875 72.519531 L 36.128906 84.5625 L 67.339844 72.519531 L 67.339844 60.613281 C 70.113281 59.863281 72.1875 57 72.1875 53.589844 C 72.183594 50.175781 70.113281 47.316406 67.339844 46.566406 Z M 59.390625 33.582031 L 61.664062 35.816406 L 48.042969 41.074219 Z M 23.972656 15.09375 C 23.972656 8.390625 29.425781 2.9375 36.128906 2.9375 C 42.835938 2.9375 48.289062 8.390625 48.289062 15.09375 C 48.289062 21.796875 42.835938 27.25 36.128906 27.25 C 29.425781 27.25 23.972656 21.796875 23.972656 15.09375 Z M 12.867188 33.582031 L 24.21875 41.074219 L 10.597656 35.816406 Z M 2.953125 53.589844 C 2.953125 51.191406 4.480469 49.246094 6.359375 49.246094 C 8.238281 49.246094 9.765625 51.195312 9.765625 53.589844 C 9.765625 55.984375 8.238281 57.933594 6.359375 57.933594 C 4.480469 57.933594 2.953125 55.984375 2.953125 53.589844 Z M 34.691406 80.921875 L 7.796875 70.546875 L 7.796875 60.621094 C 7.828125 60.609375 7.859375 60.59375 7.890625 60.585938 C 8.515625 60.402344 9.105469 60.113281 9.640625 59.734375 C 9.683594 59.703125 9.726562 59.675781 9.769531 59.644531 C 10.023438 59.457031 10.261719 59.246094 10.488281 59.019531 C 10.53125 58.976562 10.570312 58.933594 10.613281 58.890625 C 10.835938 58.652344 11.046875 58.398438 11.242188 58.128906 C 11.261719 58.097656 11.277344 58.066406 11.300781 58.039062 C 11.484375 57.769531 11.652344 57.484375 11.800781 57.183594 C 11.816406 57.152344 11.835938 57.121094 11.851562 57.085938 C 12 56.777344 12.125 56.457031 12.234375 56.121094 C 12.253906 56.0625 12.277344 56 12.296875 55.933594 C 12.394531 55.601562 12.476562 55.261719 12.53125 54.910156 C 12.542969 54.847656 12.546875 54.789062 12.554688 54.726562 C 12.609375 54.355469 12.640625 53.976562 12.640625 53.589844 C 12.640625 53.203125 12.605469 52.824219 12.554688 52.453125 C 12.546875 52.390625 12.542969 52.332031 12.53125 52.269531 C 12.476562 51.917969 12.394531 51.578125 12.296875 51.246094 C 12.277344 51.183594 12.253906 51.121094 12.234375 51.054688 C 12.125 50.722656 12 50.402344 11.851562 50.09375 C 11.835938 50.058594 11.816406 50.027344 11.800781 49.996094 C 11.648438 49.695312 11.484375 49.414062 11.300781 49.144531 C 11.28125 49.113281 11.261719 49.082031 11.238281 49.050781 C 11.046875 48.78125 10.835938 48.527344 10.613281 48.289062 C 10.570312 48.246094 10.53125 48.203125 10.488281 48.160156 C 10.261719 47.929688 10.023438 47.722656 9.769531 47.535156 C 9.726562 47.503906 9.683594 47.472656 9.640625 47.445312 C 9.105469 47.066406 8.515625 46.777344 7.890625 46.59375 C 7.859375 46.585938 7.828125 46.566406 7.796875 46.558594 L 7.796875 37.820312 L 34.691406 48.195312 Z M 18.925781 34.132812 C 21 31.476562 24.53125 29.382812 28.859375 28.246094 C 31.015625 29.441406 33.492188 30.128906 36.128906 30.128906 C 38.765625 30.128906 41.242188 29.441406 43.398438 28.246094 C 47.714844 29.378906 51.246094 31.484375 53.320312 34.140625 L 36.128906 45.484375 Z M 64.464844 70.546875 L 37.570312 80.921875 L 37.570312 48.195312 L 64.464844 37.820312 L 64.464844 46.566406 C 61.691406 47.316406 59.617188 50.175781 59.617188 53.589844 C 59.617188 57.003906 61.691406 59.863281 64.464844 60.613281 Z M 65.902344 57.933594 C 64.023438 57.933594 62.496094 55.984375 62.496094 53.589844 C 62.496094 51.195312 64.023438 49.246094 65.902344 49.246094 C 67.78125 49.246094 69.308594 51.195312 69.308594 53.589844 C 69.308594 55.984375 67.78125 57.933594 65.902344 57.933594 Z M 65.902344 57.933594 "/></g></g></svg>