<svg xmlns="http://www.w3.org/2000/svg" xmlns:xlink="http://www.w3.org/1999/xlink" width="104" zoomAndPan="magnify" viewBox="0 0 78 74.249996" height="99" preserveAspectRatio="xMidYMid meet" version="1.2"><g id="1f94957db6"><path style=" stroke:none;fill-rule:nonzero;fill:#ffffff;fill-opacity:1;" d="M 40.46875 1.589844 L 48.21875 25.457031 C 48.445312 26.164062 49.105469 26.644531 49.839844 26.644531 L 74.941406 26.644531 C 76.59375 26.644531 77.285156 28.761719 75.949219 29.738281 L 55.652344 44.492188 C 55.054688 44.925781 54.796875 45.691406 55.039062 46.398438 L 62.773438 70.253906 C 63.285156 71.828125 61.484375 73.136719 60.144531 72.160156 L 39.851562 57.410156 C 39.25 56.972656 38.441406 56.972656 37.839844 57.410156 L 17.542969 72.160156 C 16.207031 73.136719 14.40625 71.828125 14.914062 70.253906 L 22.652344 46.382812 C 22.878906 45.675781 22.636719 44.910156 22.035156 44.476562 L 1.726562 29.722656 C 0.390625 28.746094 1.082031 26.628906 2.734375 26.628906 L 27.835938 26.628906 C 28.570312 26.628906 29.230469 26.148438 29.457031 25.441406 L 37.207031 1.589844 C 37.71875 0.0117188 39.957031 0.0117188 40.46875 1.589844 Z M 40.46875 1.589844 "/></g></svg>