<svg xmlns="http://www.w3.org/2000/svg" xmlns:xlink="http://www.w3.org/1999/xlink" width="111" zoomAndPan="magnify" viewBox="0 0 83.25 72.749998" height="97" preserveAspectRatio="xMidYMid meet" version="1.2"><defs><clipPath id="0f68e3deab"><path d="M 0 0.199219 L 38 0.199219 L 38 71.558594 L 0 71.558594 Z M 0 0.199219 "/></clipPath><clipPath id="120adac0ef"><path d="M 61 0.199219 L 82 0.199219 L 82 71.558594 L 61 71.558594 Z M 61 0.199219 "/></clipPath></defs><g id="5da33a8f22"><g clip-rule="nonzero" clip-path="url(#0f68e3deab)"><path style=" stroke:none;fill-rule:nonzero;fill:#ffffff;fill-opacity:1;" d="M 35.25 0.785156 C 34.914062 0.65625 34.570312 0.582031 34.214844 0.558594 C 33.855469 0.535156 33.503906 0.566406 33.15625 0.652344 C 32.808594 0.734375 32.480469 0.867188 32.175781 1.050781 C 31.867188 1.234375 31.59375 1.457031 31.355469 1.722656 L 16.464844 18.261719 L 3.875 18.261719 C 3.40625 18.261719 2.953125 18.351562 2.519531 18.53125 C 2.085938 18.710938 1.703125 18.964844 1.371094 19.296875 C 1.039062 19.628906 0.78125 20.015625 0.601562 20.449219 C 0.421875 20.882812 0.332031 21.332031 0.332031 21.804688 L 0.332031 51.902344 C 0.332031 52.375 0.421875 52.824219 0.601562 53.257812 C 0.78125 53.691406 1.039062 54.074219 1.371094 54.40625 C 1.703125 54.738281 2.085938 54.996094 2.519531 55.175781 C 2.953125 55.355469 3.40625 55.445312 3.875 55.445312 L 16.570312 55.445312 L 31.460938 70.335938 C 31.707031 70.585938 31.984375 70.792969 32.292969 70.960938 C 32.605469 71.125 32.929688 71.246094 33.273438 71.3125 C 33.617188 71.382812 33.964844 71.402344 34.3125 71.367188 C 34.664062 71.332031 35 71.25 35.324219 71.117188 C 35.648438 70.984375 35.945312 70.804688 36.21875 70.582031 C 36.488281 70.359375 36.722656 70.101562 36.917969 69.8125 C 37.113281 69.519531 37.261719 69.207031 37.363281 68.871094 C 37.464844 68.535156 37.515625 68.191406 37.515625 67.839844 L 37.515625 4.097656 C 37.515625 3.738281 37.464844 3.386719 37.359375 3.046875 C 37.253906 2.703125 37.097656 2.382812 36.898438 2.089844 C 36.695312 1.792969 36.453125 1.535156 36.171875 1.3125 C 35.890625 1.089844 35.585938 0.914062 35.25 0.785156 Z M 30.433594 59.289062 L 20.535156 49.390625 C 19.84375 48.703125 19.011719 48.363281 18.039062 48.363281 L 7.414062 48.363281 L 7.414062 25.34375 L 18.039062 25.34375 C 19.09375 25.347656 19.972656 24.957031 20.675781 24.175781 L 30.433594 13.320312 L 30.433594 59.359375 Z M 30.433594 59.289062 "/></g><path style=" stroke:none;fill-rule:nonzero;fill:#ffffff;fill-opacity:1;" d="M 57.949219 11.179688 C 57.617188 10.847656 57.230469 10.59375 56.796875 10.414062 C 56.363281 10.234375 55.910156 10.144531 55.441406 10.148438 C 54.96875 10.148438 54.519531 10.242188 54.082031 10.421875 C 53.648438 10.601562 53.269531 10.859375 52.9375 11.195312 C 52.605469 11.527344 52.351562 11.914062 52.171875 12.347656 C 51.992188 12.78125 51.90625 13.234375 51.90625 13.707031 C 51.910156 14.175781 52 14.628906 52.183594 15.0625 C 52.363281 15.496094 52.621094 15.875 52.957031 16.207031 C 53.609375 16.855469 54.230469 17.535156 54.816406 18.242188 C 55.402344 18.949219 55.953125 19.6875 56.46875 20.449219 C 56.980469 21.214844 57.457031 22 57.894531 22.808594 C 58.328125 23.621094 58.726562 24.449219 59.078125 25.300781 C 59.433594 26.148438 59.746094 27.011719 60.011719 27.894531 C 60.28125 28.773438 60.507812 29.664062 60.6875 30.566406 C 60.867188 31.46875 61.003906 32.378906 61.09375 33.292969 C 61.183594 34.210938 61.230469 35.128906 61.230469 36.046875 C 61.230469 36.96875 61.183594 37.886719 61.09375 38.800781 C 61.003906 39.71875 60.867188 40.625 60.6875 41.527344 C 60.507812 42.429688 60.28125 43.320312 60.011719 44.203125 C 59.746094 45.082031 59.433594 45.945312 59.078125 46.796875 C 58.726562 47.644531 58.328125 48.476562 57.894531 49.285156 C 57.457031 50.09375 56.980469 50.882812 56.46875 51.644531 C 55.953125 52.410156 55.402344 53.144531 54.816406 53.851562 C 54.230469 54.5625 53.609375 55.242188 52.957031 55.886719 C 52.746094 56.039062 52.554688 56.210938 52.382812 56.402344 C 52.210938 56.597656 52.0625 56.804688 51.933594 57.03125 C 51.808594 57.257812 51.707031 57.492188 51.632812 57.742188 C 51.558594 57.988281 51.511719 58.242188 51.492188 58.5 C 51.472656 58.757812 51.480469 59.011719 51.515625 59.269531 C 51.554688 59.527344 51.617188 59.773438 51.710938 60.015625 C 51.800781 60.257812 51.917969 60.488281 52.058594 60.703125 C 52.203125 60.921875 52.363281 61.117188 52.550781 61.300781 C 52.734375 61.480469 52.9375 61.636719 53.15625 61.773438 C 53.378906 61.910156 53.609375 62.019531 53.855469 62.105469 C 54.097656 62.191406 54.347656 62.25 54.605469 62.28125 C 54.863281 62.3125 55.117188 62.3125 55.375 62.289062 C 55.632812 62.261719 55.886719 62.207031 56.128906 62.128906 C 56.375 62.046875 56.609375 61.941406 56.832031 61.808594 C 57.054688 61.675781 57.261719 61.519531 57.449219 61.34375 C 57.636719 61.167969 57.804688 60.972656 57.949219 60.757812 C 58.761719 59.945312 59.535156 59.097656 60.265625 58.210938 C 60.996094 57.324219 61.679688 56.402344 62.316406 55.449219 C 62.957031 54.492188 63.546875 53.511719 64.089844 52.496094 C 64.632812 51.484375 65.125 50.449219 65.5625 49.386719 C 66.003906 48.328125 66.390625 47.246094 66.726562 46.148438 C 67.058594 45.050781 67.339844 43.9375 67.5625 42.808594 C 67.789062 41.683594 67.957031 40.546875 68.070312 39.40625 C 68.183594 38.261719 68.238281 37.117188 68.238281 35.96875 C 68.238281 34.820312 68.183594 33.671875 68.070312 32.53125 C 67.957031 31.386719 67.789062 30.253906 67.5625 29.125 C 67.339844 28 67.058594 26.886719 66.726562 25.789062 C 66.390625 24.6875 66.003906 23.609375 65.5625 22.546875 C 65.125 21.488281 64.632812 20.449219 64.089844 19.4375 C 63.546875 18.425781 62.957031 17.441406 62.316406 16.488281 C 61.679688 15.535156 60.996094 14.613281 60.265625 13.726562 C 59.535156 12.839844 58.761719 11.988281 57.949219 11.179688 Z M 57.949219 11.179688 "/><g clip-rule="nonzero" clip-path="url(#120adac0ef)"><path style=" stroke:none;fill-rule:nonzero;fill:#ffffff;fill-opacity:1;" d="M 67.476562 1.652344 C 67.3125 1.476562 67.136719 1.316406 66.941406 1.175781 C 66.75 1.03125 66.542969 0.914062 66.324219 0.8125 C 66.105469 0.714844 65.878906 0.636719 65.648438 0.582031 C 65.414062 0.53125 65.175781 0.5 64.9375 0.496094 C 64.695312 0.488281 64.457031 0.507812 64.222656 0.550781 C 63.988281 0.59375 63.757812 0.660156 63.535156 0.75 C 63.3125 0.839844 63.101562 0.949219 62.902344 1.082031 C 62.699219 1.214844 62.515625 1.367188 62.347656 1.535156 C 62.179688 1.707031 62.027344 1.890625 61.894531 2.089844 C 61.765625 2.292969 61.652344 2.503906 61.566406 2.726562 C 61.476562 2.949219 61.410156 3.179688 61.367188 3.414062 C 61.328125 3.652344 61.308594 3.890625 61.316406 4.128906 C 61.320312 4.367188 61.351562 4.605469 61.40625 4.839844 C 61.460938 5.074219 61.539062 5.296875 61.640625 5.515625 C 61.738281 5.734375 61.859375 5.941406 62.003906 6.132812 C 62.144531 6.324219 62.304688 6.503906 62.480469 6.664062 C 63.449219 7.621094 64.363281 8.621094 65.230469 9.667969 C 66.09375 10.714844 66.90625 11.800781 67.667969 12.929688 C 68.425781 14.054688 69.125 15.21875 69.769531 16.414062 C 70.414062 17.609375 71 18.835938 71.519531 20.089844 C 72.042969 21.34375 72.503906 22.621094 72.898438 23.917969 C 73.296875 25.21875 73.628906 26.535156 73.894531 27.867188 C 74.160156 29.199219 74.363281 30.542969 74.496094 31.894531 C 74.628906 33.246094 74.695312 34.601562 74.695312 35.960938 C 74.695312 37.316406 74.628906 38.671875 74.496094 40.023438 C 74.363281 41.378906 74.160156 42.71875 73.894531 44.050781 C 73.628906 45.382812 73.296875 46.699219 72.898438 48 C 72.503906 49.296875 72.042969 50.574219 71.519531 51.828125 C 71 53.082031 70.414062 54.308594 69.769531 55.503906 C 69.125 56.699219 68.425781 57.863281 67.667969 58.988281 C 66.90625 60.117188 66.09375 61.203125 65.230469 62.25 C 64.363281 63.296875 63.449219 64.296875 62.480469 65.253906 C 62.148438 65.585938 61.890625 65.96875 61.710938 66.402344 C 61.527344 66.835938 61.4375 67.285156 61.4375 67.757812 C 61.433594 68.226562 61.523438 68.679688 61.699219 69.113281 C 61.878906 69.546875 62.132812 69.933594 62.464844 70.265625 C 62.796875 70.597656 63.179688 70.855469 63.613281 71.039062 C 64.046875 71.21875 64.496094 71.308594 64.964844 71.3125 C 65.4375 71.3125 65.890625 71.226562 66.324219 71.046875 C 66.757812 70.867188 67.140625 70.613281 67.476562 70.28125 C 68.605469 69.164062 69.679688 67.988281 70.691406 66.761719 C 71.707031 65.535156 72.65625 64.265625 73.546875 62.945312 C 74.433594 61.625 75.253906 60.261719 76.007812 58.859375 C 76.761719 57.460938 77.445312 56.023438 78.058594 54.554688 C 78.671875 53.085938 79.207031 51.589844 79.671875 50.070312 C 80.136719 48.546875 80.527344 47.007812 80.835938 45.445312 C 81.148438 43.886719 81.382812 42.3125 81.539062 40.730469 C 81.699219 39.148438 81.777344 37.558594 81.777344 35.96875 C 81.777344 34.375 81.699219 32.789062 81.539062 31.207031 C 81.382812 29.621094 81.148438 28.050781 80.835938 26.488281 C 80.527344 24.929688 80.136719 23.386719 79.671875 21.867188 C 79.207031 20.34375 78.671875 18.847656 78.058594 17.378906 C 77.445312 15.910156 76.761719 14.476562 76.007812 13.074219 C 75.253906 11.671875 74.433594 10.3125 73.546875 8.992188 C 72.65625 7.671875 71.707031 6.398438 70.691406 5.171875 C 69.679688 3.945312 68.605469 2.773438 67.476562 1.652344 Z M 67.476562 1.652344 "/></g><path style=" stroke:none;fill-rule:nonzero;fill:#ffffff;fill-opacity:1;" d="M 47.964844 21.023438 C 47.628906 20.691406 47.246094 20.4375 46.8125 20.257812 C 46.375 20.082031 45.925781 19.992188 45.453125 19.996094 C 44.984375 19.996094 44.53125 20.089844 44.097656 20.269531 C 43.664062 20.449219 43.285156 20.707031 42.953125 21.042969 C 42.621094 21.375 42.367188 21.757812 42.1875 22.195312 C 42.011719 22.628906 41.921875 23.082031 41.921875 23.550781 C 41.925781 24.019531 42.015625 24.472656 42.199219 24.90625 C 42.378906 25.339844 42.636719 25.722656 42.96875 26.050781 C 43.625 26.703125 44.210938 27.410156 44.726562 28.175781 C 45.242188 28.941406 45.675781 29.75 46.03125 30.601562 C 46.386719 31.453125 46.65625 32.332031 46.835938 33.234375 C 47.015625 34.140625 47.109375 35.054688 47.109375 35.976562 C 47.109375 36.898438 47.015625 37.8125 46.835938 38.71875 C 46.65625 39.625 46.386719 40.5 46.03125 41.351562 C 45.675781 42.203125 45.242188 43.011719 44.726562 43.777344 C 44.210938 44.542969 43.625 45.25 42.96875 45.902344 C 42.636719 46.230469 42.378906 46.613281 42.195312 47.046875 C 42.015625 47.480469 41.921875 47.933594 41.921875 48.402344 C 41.921875 48.875 42.007812 49.324219 42.1875 49.761719 C 42.363281 50.195312 42.621094 50.578125 42.949219 50.914062 C 43.28125 51.246094 43.664062 51.503906 44.097656 51.6875 C 44.53125 51.867188 44.984375 51.957031 45.453125 51.960938 C 45.921875 51.960938 46.375 51.875 46.8125 51.695312 C 47.246094 51.515625 47.628906 51.261719 47.964844 50.929688 C 48.457031 50.441406 48.921875 49.929688 49.363281 49.394531 C 49.808594 48.863281 50.222656 48.308594 50.609375 47.730469 C 50.996094 47.15625 51.355469 46.5625 51.683594 45.953125 C 52.011719 45.34375 52.308594 44.71875 52.574219 44.078125 C 52.84375 43.4375 53.078125 42.785156 53.277344 42.121094 C 53.480469 41.457031 53.652344 40.789062 53.785156 40.105469 C 53.921875 39.425781 54.023438 38.742188 54.09375 38.050781 C 54.160156 37.363281 54.195312 36.671875 54.195312 35.976562 C 54.195312 35.285156 54.160156 34.589844 54.09375 33.902344 C 54.023438 33.210938 53.921875 32.527344 53.785156 31.847656 C 53.652344 31.167969 53.480469 30.496094 53.277344 29.832031 C 53.078125 29.167969 52.84375 28.515625 52.574219 27.875 C 52.308594 27.238281 52.011719 26.613281 51.683594 26 C 51.355469 25.390625 50.996094 24.796875 50.609375 24.222656 C 50.222656 23.648438 49.808594 23.089844 49.363281 22.558594 C 48.921875 22.023438 48.457031 21.511719 47.964844 21.023438 Z M 47.964844 21.023438 "/></g></svg>