<svg xmlns="http://www.w3.org/2000/svg" xmlns:xlink="http://www.w3.org/1999/xlink" width="74" zoomAndPan="magnify" viewBox="0 0 55.5 55.499996" height="74" preserveAspectRatio="xMidYMid meet" version="1.0"><defs><clipPath id="4e9e4b8f1e"><path d="M 0 0 L 54.261719 0 L 54.261719 54.261719 L 0 54.261719 Z M 0 0 " clip-rule="nonzero"/></clipPath></defs><g clip-path="url(#4e9e4b8f1e)"><path fill="#000000" d="M 27.128906 0 C 12.144531 0 0 12.144531 0 27.128906 C 0 42.117188 12.144531 54.261719 27.128906 54.261719 C 42.117188 54.261719 54.261719 42.117188 54.261719 27.128906 C 54.238281 12.144531 42.09375 0 27.128906 0 Z M 42.75 34.71875 C 42.445312 36.714844 40.707031 38.171875 38.6875 38.171875 L 15.550781 38.171875 C 13.53125 38.171875 11.792969 36.714844 11.488281 34.71875 C 11.203125 32.863281 10.921875 30.277344 10.898438 27.105469 C 10.921875 23.9375 11.179688 21.375 11.488281 19.496094 C 11.792969 17.5 13.53125 16.042969 15.550781 16.042969 L 38.6875 16.042969 C 40.707031 16.042969 42.445312 17.5 42.75 19.496094 C 43.03125 21.351562 43.316406 23.9375 43.339844 27.105469 C 43.316406 30.277344 43.03125 32.863281 42.75 34.71875 Z M 42.75 34.71875 " fill-opacity="1" fill-rule="nonzero"/></g><path fill="#000000" d="M 23.699219 22.714844 L 23.699219 31.523438 L 31.898438 27.128906 Z M 23.699219 22.714844 " fill-opacity="1" fill-rule="nonzero"/></svg>